<svg width="71" height="69" viewBox="0 0 71 69" fill="none" xmlns="http://www.w3.org/2000/svg">
<g clip-path="url(#clip0_1990_38)">
<path d="M27.8795 18.8628C27.8795 14.6434 31.2251 11.1686 35.5619 11.1686C39.8987 11.1686 43.2443 14.6434 43.2443 18.8628C43.2443 23.0822 39.8987 26.5571 35.5619 26.5571C31.2251 26.5571 27.8795 23.0822 27.8795 18.8628Z" fill="white"/>
<path d="M35.4381 -0.000244141C25.0297 -0.000244141 16.6039 8.4386 16.6039 18.8631C16.6039 29.2875 25.0297 37.7264 35.4381 37.7264C45.8465 37.7264 54.2723 29.2875 54.2723 18.8631C54.3962 8.4386 45.8465 -0.000244141 35.4381 -0.000244141ZM48.3247 27.7983C44.2356 28.2947 39.7749 28.4188 35.4381 28.4188C31.1013 28.4188 26.6405 28.2947 22.5515 27.7983C21.4363 27.6742 20.8168 27.426 20.569 26.185C20.3212 23.8271 20.3212 21.3451 20.3212 18.8631C20.3212 16.381 20.3212 14.0231 20.569 11.6652C20.6929 10.4242 21.3124 10.176 22.5515 10.0519C26.7644 9.55551 31.2252 9.43141 35.4381 9.43141C39.7749 9.43141 44.2356 9.55551 48.3247 10.0519C49.5637 10.176 50.1833 10.4242 50.3072 11.6652C50.555 14.0231 50.555 16.5051 50.555 18.8631C50.555 21.3451 50.555 23.703 50.3072 26.185C50.1833 27.426 49.5637 27.6742 48.3247 27.7983Z" fill="white"/>
<path d="M63.4409 59.1955C61.4584 59.1955 59.7237 57.5822 59.7237 55.2243C59.7237 52.9904 61.3345 51.253 63.4409 51.253C65.4235 51.253 67.1582 52.8663 67.1582 55.2243C67.1582 57.4581 65.5474 59.1955 63.4409 59.1955ZM46.8371 59.1955C44.8545 59.1955 43.2437 57.5822 43.2437 55.2243C43.2437 52.8663 44.8545 51.253 46.8371 51.253C48.8196 51.253 50.4305 52.8663 50.4305 55.2243C50.4305 57.5822 48.8196 59.1955 46.8371 59.1955ZM30.1093 59.1955C28.1268 59.1955 26.3921 57.5822 26.3921 55.2243C26.3921 52.9904 28.0029 51.253 30.1093 51.253C32.0919 51.253 33.8266 52.8663 33.8266 55.2243C33.8266 57.4581 32.0919 59.1955 30.1093 59.1955ZM7.43396 59.1955C5.45141 59.1955 3.71668 57.5822 3.71668 55.2243C3.71668 52.8663 5.45141 51.253 7.43396 51.253C9.41651 51.253 11.0273 52.8663 11.0273 55.2243C11.1512 57.5822 9.41651 59.1955 7.43396 59.1955ZM63.4409 47.6541C59.3519 47.6541 55.8825 50.8807 55.8825 55.3484C55.8825 59.816 59.228 63.0426 63.4409 63.0426C67.5299 63.0426 70.9994 59.816 70.9994 55.3484C70.9994 50.8807 67.6538 47.6541 63.4409 47.6541ZM30.1093 47.6541C26.0203 47.6541 22.5509 50.8807 22.5509 55.3484C22.5509 59.816 25.8964 63.0426 30.1093 63.0426C34.1984 63.0426 37.6678 59.816 37.6678 55.3484C37.6678 50.8807 34.3223 47.6541 30.1093 47.6541ZM12.0186 47.9023C11.523 47.9023 11.2751 48.1505 11.2751 48.6469V49.5156C10.4078 48.5228 8.79696 47.6541 7.18614 47.6541C3.34495 47.6541 -0.000594636 50.8807 -0.000594636 55.2243C-0.000594636 59.5678 3.09714 62.5462 7.06223 62.5462C8.79696 62.5462 10.16 61.6775 11.0273 60.8088C11.0273 63.7872 9.41651 65.1523 6.6905 65.1523C5.20359 65.1523 3.84059 64.6559 2.22977 63.6631C1.85804 63.4149 1.36241 63.4149 1.11459 63.9113L0.123315 65.7728C-0.124504 66.2692 -0.000594637 66.6415 0.371133 66.8897C2.35368 68.1307 4.70796 68.7512 6.6905 68.7512C11.8947 68.7512 14.8685 65.8969 14.8685 59.4437V48.3987C14.8685 47.9023 14.6207 47.6541 14.1251 47.6541H12.0186V47.9023ZM47.3327 47.6541C45.8458 47.6541 44.3589 48.2746 43.3676 49.3915V42.6901C43.3676 42.1937 43.1198 41.9455 42.6242 41.9455H40.2699C39.7743 41.9455 39.5265 42.1937 39.5265 42.6901V62.0498C39.5265 62.5462 39.7743 62.7944 40.2699 62.7944H42.3764C42.872 62.7944 43.1198 62.5462 43.1198 62.0498V61.1811C43.9872 62.1739 45.7219 63.0426 47.4566 63.0426C51.1739 63.0426 54.3956 59.6919 54.3956 55.3484C54.2717 50.8807 51.05 47.6541 47.3327 47.6541ZM18.4619 41.6973C17.5945 41.325 16.8511 41.6973 16.8511 42.6901V61.8016C16.8511 62.7944 17.4706 63.2908 18.4619 62.7944L19.701 62.298C20.4444 61.9257 20.8162 61.4293 20.8162 60.5606V43.9311C20.8162 43.0624 20.4444 42.566 19.701 42.1937L18.4619 41.6973Z" fill="white"/>
</g>
<defs>
<clipPath id="clip0_1990_38">
<rect width="71" height="69" fill="white"/>
</clipPath>
</defs>
</svg>
