<svg width="539" height="412" viewBox="0 0 539 412" fill="none" xmlns="http://www.w3.org/2000/svg">
<ellipse cx="145.189" cy="157.146" rx="101.247" ry="126.1" transform="rotate(-25.1088 145.189 157.146)" fill="#C4C4C4"/>
<ellipse cx="145.189" cy="157.146" rx="101.247" ry="126.1" transform="rotate(-25.1088 145.189 157.146)" fill="#7833E7"/>
<path d="M104.658 125.738V170.367H95.8488V135.894L85.2652 139.258V132.315L103.71 125.738H104.658ZM128.53 163.668H129.111C131.558 163.668 133.658 163.372 135.412 162.781C137.186 162.169 138.644 161.292 139.786 160.15C140.928 159.008 141.774 157.611 142.325 155.96C142.876 154.287 143.151 152.391 143.151 150.27V141.828C143.151 140.217 142.988 138.799 142.661 137.576C142.356 136.352 141.907 135.343 141.316 134.548C140.745 133.732 140.072 133.12 139.297 132.712C138.542 132.305 137.706 132.101 136.788 132.101C135.81 132.101 134.943 132.345 134.188 132.835C133.434 133.304 132.792 133.946 132.261 134.762C131.752 135.578 131.354 136.516 131.068 137.576C130.803 138.616 130.671 139.707 130.671 140.849C130.671 141.991 130.803 143.082 131.068 144.122C131.334 145.142 131.731 146.049 132.261 146.844C132.792 147.619 133.454 148.241 134.25 148.71C135.045 149.159 135.983 149.383 137.064 149.383C138.104 149.383 139.032 149.189 139.847 148.802C140.683 148.394 141.387 147.864 141.958 147.211C142.549 146.559 142.998 145.835 143.304 145.04C143.63 144.244 143.793 143.439 143.793 142.623L146.699 144.214C146.699 145.641 146.393 147.048 145.781 148.435C145.17 149.822 144.313 151.086 143.212 152.228C142.131 153.349 140.877 154.247 139.45 154.92C138.022 155.593 136.493 155.929 134.861 155.929C132.781 155.929 130.936 155.552 129.325 154.797C127.714 154.022 126.348 152.962 125.226 151.616C124.125 150.25 123.289 148.659 122.718 146.844C122.147 145.029 121.861 143.061 121.861 140.941C121.861 138.779 122.208 136.75 122.901 134.854C123.615 132.957 124.624 131.285 125.93 129.837C127.255 128.389 128.835 127.257 130.671 126.442C132.526 125.606 134.586 125.188 136.85 125.188C139.113 125.188 141.173 125.626 143.029 126.503C144.884 127.38 146.475 128.624 147.8 130.235C149.126 131.825 150.145 133.732 150.859 135.955C151.593 138.178 151.96 140.645 151.96 143.357V146.416C151.96 149.312 151.644 152.004 151.012 154.491C150.4 156.979 149.472 159.233 148.229 161.251C147.005 163.25 145.476 164.963 143.64 166.39C141.825 167.818 139.715 168.909 137.308 169.663C134.902 170.418 132.21 170.795 129.233 170.795H128.53V163.668ZM171.488 125.83V170.367H162.312V125.83H171.488ZM198.161 125.83L180.512 147.823L170.326 158.774L168.674 150.087L175.556 140.665L186.905 125.83H198.161ZM187.731 170.367L174.608 149.781L181.399 144.091L198.589 170.367H187.731Z" fill="white"/>
<path d="M119.188 94.2016H120.786L123.79 102.216L126.788 94.2016H128.386L124.418 104.592H123.148L119.188 94.2016ZM118.46 94.2016H119.98L120.244 101.138V104.592H118.46V94.2016ZM127.594 94.2016H129.121V104.592H127.33V101.138L127.594 94.2016ZM136.153 95.586L133.049 104.592H131.172L135.083 94.2016H136.282L136.153 95.586ZM138.751 104.592L135.639 95.586L135.504 94.2016H136.71L140.635 104.592H138.751ZM138.601 100.738V102.158H132.949V100.738H138.601ZM135.054 93.5593L136.446 91.4113H138.387L136.446 93.5593H135.054ZM147.995 101.916C147.995 101.702 147.962 101.511 147.895 101.345C147.833 101.178 147.722 101.026 147.56 100.888C147.398 100.75 147.17 100.617 146.875 100.489C146.585 100.355 146.213 100.22 145.761 100.082C145.267 99.9296 144.81 99.7607 144.391 99.5752C143.977 99.3849 143.616 99.166 143.307 98.9186C142.997 98.6665 142.757 98.3787 142.586 98.0552C142.415 97.7269 142.329 97.3487 142.329 96.9205C142.329 96.4971 142.417 96.1117 142.593 95.7644C142.774 95.4171 143.028 95.1174 143.357 94.8653C143.69 94.6084 144.082 94.4109 144.534 94.273C144.986 94.1302 145.486 94.0589 146.033 94.0589C146.803 94.0589 147.467 94.2016 148.024 94.487C148.585 94.7725 149.016 95.1555 149.315 95.636C149.62 96.1165 149.772 96.6469 149.772 97.2273H147.995C147.995 96.8848 147.921 96.5827 147.774 96.3211C147.631 96.0546 147.412 95.8453 147.117 95.6931C146.827 95.5408 146.458 95.4647 146.011 95.4647C145.588 95.4647 145.236 95.5289 144.955 95.6574C144.674 95.7858 144.465 95.9595 144.327 96.1783C144.189 96.3972 144.12 96.6446 144.12 96.9205C144.12 97.1155 144.165 97.294 144.256 97.4557C144.346 97.6127 144.484 97.7602 144.67 97.8982C144.855 98.0314 145.088 98.1574 145.369 98.2764C145.65 98.3953 145.98 98.5095 146.361 98.6189C146.937 98.7902 147.438 98.9805 147.867 99.1898C148.295 99.3944 148.652 99.6275 148.937 99.8892C149.223 100.151 149.437 100.448 149.579 100.781C149.722 101.109 149.793 101.483 149.793 101.902C149.793 102.339 149.705 102.734 149.529 103.086C149.353 103.433 149.101 103.731 148.773 103.978C148.449 104.221 148.059 104.409 147.603 104.542C147.151 104.67 146.646 104.735 146.09 104.735C145.59 104.735 145.098 104.668 144.613 104.535C144.132 104.402 143.694 104.199 143.299 103.928C142.905 103.652 142.591 103.31 142.357 102.901C142.124 102.487 142.008 102.004 142.008 101.452H143.799C143.799 101.79 143.856 102.078 143.97 102.315C144.089 102.553 144.253 102.748 144.463 102.901C144.672 103.048 144.915 103.158 145.191 103.229C145.471 103.3 145.771 103.336 146.09 103.336C146.508 103.336 146.858 103.276 147.139 103.158C147.424 103.039 147.638 102.872 147.781 102.658C147.924 102.444 147.995 102.197 147.995 101.916ZM159.497 104.592H157.278L157.292 103.172H159.497C160.139 103.172 160.677 103.031 161.11 102.751C161.548 102.47 161.876 102.068 162.095 101.545C162.318 101.021 162.43 100.398 162.43 99.6751V99.1113C162.43 98.5499 162.366 98.0528 162.238 97.6198C162.114 97.1869 161.928 96.823 161.681 96.528C161.438 96.233 161.139 96.0094 160.782 95.8572C160.43 95.705 160.023 95.6288 159.561 95.6288H157.235V94.2016H159.561C160.251 94.2016 160.882 94.3182 161.453 94.5513C162.023 94.7796 162.516 95.1103 162.93 95.5432C163.348 95.9761 163.67 96.4947 163.893 97.0989C164.117 97.7031 164.229 98.3787 164.229 99.1256V99.6751C164.229 100.422 164.117 101.098 163.893 101.702C163.67 102.306 163.348 102.825 162.93 103.257C162.511 103.686 162.012 104.016 161.431 104.249C160.855 104.478 160.211 104.592 159.497 104.592ZM158.27 94.2016V104.592H156.479V94.2016H158.27ZM173.558 103.172V104.592H168.042V103.172H173.558ZM168.549 94.2016V104.592H166.758V94.2016H168.549ZM172.838 98.5404V99.9391H168.042V98.5404H172.838ZM173.523 94.2016V95.6288H168.042V94.2016H173.523Z" fill="white"/>
<path d="M129.495 184.949V186.369H123.979V184.949H129.495ZM124.421 180.61V191H122.63V180.61H124.421ZM130.873 180.61V191H129.089V180.61H130.873ZM142.022 185.52V186.09C142.022 186.875 141.92 187.579 141.715 188.203C141.511 188.826 141.218 189.356 140.838 189.794C140.462 190.232 140.01 190.567 139.482 190.8C138.954 191.029 138.369 191.143 137.726 191.143C137.089 191.143 136.506 191.029 135.978 190.8C135.455 190.567 135 190.232 134.615 189.794C134.23 189.356 133.93 188.826 133.716 188.203C133.506 187.579 133.402 186.875 133.402 186.09V185.52C133.402 184.735 133.506 184.033 133.716 183.414C133.925 182.791 134.22 182.261 134.601 181.823C134.986 181.381 135.44 181.045 135.964 180.817C136.492 180.584 137.074 180.467 137.712 180.467C138.354 180.467 138.939 180.584 139.467 180.817C139.996 181.045 140.45 181.381 140.83 181.823C141.211 182.261 141.504 182.791 141.708 183.414C141.918 184.033 142.022 184.735 142.022 185.52ZM140.231 186.09V185.505C140.231 184.925 140.174 184.413 140.06 183.971C139.95 183.524 139.786 183.15 139.567 182.851C139.353 182.546 139.089 182.318 138.775 182.165C138.461 182.008 138.107 181.93 137.712 181.93C137.317 181.93 136.965 182.008 136.656 182.165C136.347 182.318 136.083 182.546 135.864 182.851C135.65 183.15 135.485 183.524 135.371 183.971C135.257 184.413 135.2 184.925 135.2 185.505V186.09C135.2 186.671 135.257 187.185 135.371 187.632C135.485 188.079 135.652 188.457 135.871 188.766C136.094 189.071 136.361 189.302 136.67 189.459C136.979 189.611 137.331 189.687 137.726 189.687C138.126 189.687 138.48 189.611 138.79 189.459C139.099 189.302 139.36 189.071 139.575 188.766C139.789 188.457 139.95 188.079 140.06 187.632C140.174 187.185 140.231 186.671 140.231 186.09ZM144.544 180.61H148.219C149.009 180.61 149.682 180.729 150.239 180.967C150.796 181.204 151.221 181.557 151.516 182.023C151.816 182.484 151.966 183.055 151.966 183.735C151.966 184.254 151.871 184.711 151.68 185.106C151.49 185.5 151.221 185.834 150.874 186.105C150.527 186.371 150.113 186.578 149.632 186.726L149.09 186.99H145.786L145.772 185.569H148.248C148.676 185.569 149.033 185.493 149.318 185.341C149.604 185.189 149.818 184.982 149.961 184.72C150.108 184.454 150.182 184.154 150.182 183.821C150.182 183.46 150.11 183.146 149.968 182.879C149.83 182.608 149.616 182.401 149.325 182.258C149.035 182.111 148.667 182.037 148.219 182.037H146.335V191H144.544V180.61ZM150.474 191L148.034 186.333L149.911 186.326L152.387 190.907V191H150.474ZM158.527 181.994L155.423 191H153.546L157.456 180.61H158.655L158.527 181.994ZM161.124 191L158.013 181.994L157.877 180.61H159.083L163.008 191H161.124ZM160.975 187.147V188.567H155.323V187.147H160.975ZM170.369 188.324C170.369 188.11 170.335 187.92 170.269 187.753C170.207 187.587 170.095 187.434 169.933 187.296C169.772 187.158 169.543 187.025 169.248 186.897C168.958 186.764 168.587 186.628 168.135 186.49C167.64 186.338 167.184 186.169 166.765 185.983C166.351 185.793 165.989 185.574 165.68 185.327C165.371 185.075 165.131 184.787 164.959 184.463C164.788 184.135 164.703 183.757 164.703 183.329C164.703 182.905 164.791 182.52 164.967 182.173C165.147 181.825 165.402 181.526 165.73 181.273C166.063 181.017 166.456 180.819 166.908 180.681C167.36 180.538 167.859 180.467 168.406 180.467C169.177 180.467 169.841 180.61 170.397 180.895C170.959 181.181 171.389 181.564 171.689 182.044C171.993 182.525 172.146 183.055 172.146 183.636H170.369C170.369 183.293 170.295 182.991 170.147 182.729C170.005 182.463 169.786 182.254 169.491 182.101C169.201 181.949 168.832 181.873 168.385 181.873C167.961 181.873 167.609 181.937 167.329 182.066C167.048 182.194 166.839 182.368 166.701 182.587C166.563 182.805 166.494 183.053 166.494 183.329C166.494 183.524 166.539 183.702 166.629 183.864C166.72 184.021 166.858 184.168 167.043 184.306C167.229 184.44 167.462 184.566 167.743 184.685C168.023 184.804 168.354 184.918 168.735 185.027C169.31 185.198 169.812 185.389 170.24 185.598C170.668 185.803 171.025 186.036 171.311 186.297C171.596 186.559 171.81 186.856 171.953 187.189C172.096 187.518 172.167 187.891 172.167 188.31C172.167 188.747 172.079 189.142 171.903 189.494C171.727 189.842 171.475 190.139 171.147 190.386C170.823 190.629 170.433 190.817 169.976 190.95C169.524 191.079 169.02 191.143 168.463 191.143C167.964 191.143 167.471 191.076 166.986 190.943C166.506 190.81 166.068 190.608 165.673 190.336C165.278 190.061 164.964 189.718 164.731 189.309C164.498 188.895 164.381 188.412 164.381 187.86H166.173C166.173 188.198 166.23 188.486 166.344 188.724C166.463 188.962 166.627 189.157 166.836 189.309C167.046 189.456 167.288 189.566 167.564 189.637C167.845 189.708 168.145 189.744 168.463 189.744C168.882 189.744 169.232 189.685 169.512 189.566C169.798 189.447 170.012 189.28 170.155 189.066C170.297 188.852 170.369 188.605 170.369 188.324ZM87.6557 209H85.4364L85.4507 207.58H87.6557C88.298 207.58 88.8356 207.44 89.2685 207.159C89.7062 206.878 90.0345 206.476 90.2533 205.953C90.4769 205.43 90.5887 204.806 90.5887 204.083V203.52C90.5887 202.958 90.5245 202.461 90.396 202.028C90.2723 201.595 90.0868 201.231 89.8394 200.936C89.5968 200.641 89.2971 200.418 88.9403 200.265C88.5882 200.113 88.1814 200.037 87.72 200.037H85.3936V198.61H87.72C88.4098 198.61 89.0402 198.726 89.6111 198.959C90.182 199.188 90.6744 199.518 91.0883 199.951C91.5069 200.384 91.828 200.903 92.0516 201.507C92.2752 202.111 92.387 202.787 92.387 203.534V204.083C92.387 204.83 92.2752 205.506 92.0516 206.11C91.828 206.714 91.5069 207.233 91.0883 207.666C90.6696 208.094 90.1701 208.424 89.5897 208.658C89.014 208.886 88.3694 209 87.6557 209ZM86.4283 198.61V209H84.6371V198.61H86.4283ZM96.8286 198.61V209H95.0374V198.61H96.8286ZM105.252 206.324C105.252 206.11 105.219 205.92 105.152 205.753C105.09 205.587 104.979 205.434 104.817 205.296C104.655 205.158 104.427 205.025 104.132 204.897C103.842 204.764 103.471 204.628 103.019 204.49C102.524 204.338 102.067 204.169 101.648 203.983C101.235 203.793 100.873 203.574 100.564 203.327C100.254 203.075 100.014 202.787 99.843 202.463C99.6717 202.135 99.5861 201.757 99.5861 201.329C99.5861 200.905 99.6741 200.52 99.8501 200.173C100.031 199.825 100.285 199.526 100.614 199.273C100.947 199.017 101.339 198.819 101.791 198.681C102.243 198.538 102.743 198.467 103.29 198.467C104.06 198.467 104.724 198.61 105.281 198.895C105.842 199.181 106.273 199.564 106.572 200.044C106.877 200.525 107.029 201.055 107.029 201.636H105.252C105.252 201.293 105.178 200.991 105.031 200.729C104.888 200.463 104.669 200.254 104.374 200.101C104.084 199.949 103.716 199.873 103.268 199.873C102.845 199.873 102.493 199.937 102.212 200.066C101.931 200.194 101.722 200.368 101.584 200.587C101.446 200.805 101.377 201.053 101.377 201.329C101.377 201.524 101.422 201.702 101.513 201.864C101.603 202.021 101.741 202.168 101.927 202.306C102.112 202.44 102.345 202.566 102.626 202.685C102.907 202.804 103.237 202.918 103.618 203.027C104.194 203.198 104.696 203.389 105.124 203.598C105.552 203.803 105.909 204.036 106.194 204.297C106.48 204.559 106.694 204.856 106.836 205.189C106.979 205.518 107.051 205.891 107.051 206.31C107.051 206.747 106.963 207.142 106.786 207.494C106.61 207.842 106.358 208.139 106.03 208.386C105.707 208.629 105.316 208.817 104.86 208.95C104.408 209.079 103.903 209.143 103.347 209.143C102.847 209.143 102.355 209.076 101.87 208.943C101.389 208.81 100.951 208.608 100.557 208.336C100.162 208.061 99.8477 207.718 99.6146 207.309C99.3815 206.895 99.2649 206.412 99.2649 205.86H101.056C101.056 206.198 101.113 206.486 101.227 206.724C101.346 206.962 101.51 207.157 101.72 207.309C101.929 207.456 102.172 207.566 102.448 207.637C102.728 207.708 103.028 207.744 103.347 207.744C103.765 207.744 104.115 207.685 104.396 207.566C104.681 207.447 104.895 207.28 105.038 207.066C105.181 206.852 105.252 206.605 105.252 206.324ZM113.64 198.61V209H111.863V198.61H113.64ZM116.901 198.61V200.037H108.63V198.61H116.901ZM119.002 198.61H122.677C123.467 198.61 124.14 198.729 124.697 198.967C125.254 199.204 125.679 199.557 125.974 200.023C126.274 200.484 126.424 201.055 126.424 201.735C126.424 202.254 126.329 202.711 126.138 203.106C125.948 203.5 125.679 203.834 125.332 204.105C124.985 204.371 124.571 204.578 124.09 204.726L123.548 204.99H120.244L120.23 203.569H122.706C123.134 203.569 123.491 203.493 123.776 203.341C124.062 203.189 124.276 202.982 124.419 202.72C124.566 202.454 124.64 202.154 124.64 201.821C124.64 201.46 124.569 201.146 124.426 200.879C124.288 200.608 124.074 200.401 123.784 200.258C123.493 200.111 123.125 200.037 122.677 200.037H120.793V209H119.002V198.61ZM124.932 209L122.492 204.333L124.369 204.326L126.845 208.907V209H124.932ZM130.851 198.61V209H129.06V198.61H130.851ZM137.705 204.304H135.057L135.043 202.999H137.355C137.745 202.999 138.076 202.941 138.347 202.827C138.623 202.708 138.832 202.539 138.975 202.321C139.118 202.097 139.189 201.828 139.189 201.514C139.189 201.167 139.123 200.884 138.989 200.665C138.856 200.446 138.652 200.287 138.376 200.187C138.104 200.087 137.757 200.037 137.334 200.037H135.6V209H133.808V198.61H137.334C137.905 198.61 138.414 198.665 138.861 198.774C139.313 198.883 139.696 199.055 140.01 199.288C140.329 199.516 140.569 199.806 140.731 200.158C140.897 200.51 140.98 200.929 140.98 201.414C140.98 201.843 140.878 202.235 140.674 202.592C140.469 202.944 140.167 203.232 139.767 203.455C139.368 203.679 138.87 203.812 138.276 203.855L137.705 204.304ZM137.626 209H134.494L135.3 207.58H137.626C138.031 207.58 138.369 207.513 138.64 207.38C138.911 207.242 139.113 207.054 139.246 206.816C139.384 206.574 139.453 206.291 139.453 205.967C139.453 205.629 139.394 205.337 139.275 205.089C139.156 204.837 138.968 204.645 138.711 204.511C138.454 204.373 138.119 204.304 137.705 204.304H135.692L135.707 202.999H138.326L138.732 203.491C139.303 203.51 139.772 203.636 140.138 203.869C140.509 204.102 140.785 204.404 140.966 204.775C141.147 205.147 141.237 205.546 141.237 205.974C141.237 206.636 141.092 207.19 140.802 207.637C140.517 208.084 140.105 208.424 139.567 208.658C139.03 208.886 138.383 209 137.626 209ZM149.604 198.61H151.388V205.553C151.388 206.343 151.217 207.004 150.874 207.537C150.531 208.07 150.065 208.472 149.475 208.743C148.89 209.01 148.236 209.143 147.513 209.143C146.766 209.143 146.1 209.01 145.515 208.743C144.93 208.472 144.468 208.07 144.13 207.537C143.797 207.004 143.631 206.343 143.631 205.553V198.61H145.415V205.553C145.415 206.053 145.5 206.464 145.672 206.788C145.843 207.107 146.086 207.342 146.4 207.494C146.714 207.647 147.085 207.723 147.513 207.723C147.941 207.723 148.31 207.647 148.619 207.494C148.933 207.342 149.176 207.107 149.347 206.788C149.518 206.464 149.604 206.053 149.604 205.553V198.61ZM155.979 198.61V209H154.188V198.61H155.979ZM161.955 209H159.736L159.75 207.58H161.955C162.597 207.58 163.135 207.44 163.568 207.159C164.006 206.878 164.334 206.476 164.553 205.953C164.776 205.43 164.888 204.806 164.888 204.083V203.52C164.888 202.958 164.824 202.461 164.695 202.028C164.572 201.595 164.386 201.231 164.139 200.936C163.896 200.641 163.596 200.418 163.24 200.265C162.888 200.113 162.481 200.037 162.019 200.037H159.693V198.61H162.019C162.709 198.61 163.34 198.726 163.91 198.959C164.481 199.188 164.974 199.518 165.388 199.951C165.806 200.384 166.127 200.903 166.351 201.507C166.575 202.111 166.686 202.787 166.686 203.534V204.083C166.686 204.83 166.575 205.506 166.351 206.11C166.127 206.714 165.806 207.233 165.388 207.666C164.969 208.094 164.469 208.424 163.889 208.658C163.313 208.886 162.669 209 161.955 209ZM160.728 198.61V209H158.936V198.61H160.728ZM173.105 199.994L170 209H168.124L172.034 198.61H173.233L173.105 199.994ZM175.702 209L172.591 199.994L172.455 198.61H173.661L177.586 209H175.702ZM175.552 205.147V206.567H169.901V205.147H175.552ZM184.947 206.324C184.947 206.11 184.913 205.92 184.847 205.753C184.785 205.587 184.673 205.434 184.511 205.296C184.349 205.158 184.121 205.025 183.826 204.897C183.536 204.764 183.165 204.628 182.713 204.49C182.218 204.338 181.761 204.169 181.343 203.983C180.929 203.793 180.567 203.574 180.258 203.327C179.949 203.075 179.709 202.787 179.537 202.463C179.366 202.135 179.28 201.757 179.28 201.329C179.28 200.905 179.368 200.52 179.544 200.173C179.725 199.825 179.98 199.526 180.308 199.273C180.641 199.017 181.034 198.819 181.485 198.681C181.937 198.538 182.437 198.467 182.984 198.467C183.755 198.467 184.418 198.61 184.975 198.895C185.536 199.181 185.967 199.564 186.267 200.044C186.571 200.525 186.723 201.055 186.723 201.636H184.947C184.947 201.293 184.873 200.991 184.725 200.729C184.583 200.463 184.364 200.254 184.069 200.101C183.779 199.949 183.41 199.873 182.963 199.873C182.539 199.873 182.187 199.937 181.907 200.066C181.626 200.194 181.417 200.368 181.279 200.587C181.141 200.805 181.072 201.053 181.072 201.329C181.072 201.524 181.117 201.702 181.207 201.864C181.298 202.021 181.436 202.168 181.621 202.306C181.807 202.44 182.04 202.566 182.32 202.685C182.601 202.804 182.932 202.918 183.312 203.027C183.888 203.198 184.39 203.389 184.818 203.598C185.246 203.803 185.603 204.036 185.889 204.297C186.174 204.559 186.388 204.856 186.531 205.189C186.674 205.518 186.745 205.891 186.745 206.31C186.745 206.747 186.657 207.142 186.481 207.494C186.305 207.842 186.053 208.139 185.724 208.386C185.401 208.629 185.011 208.817 184.554 208.95C184.102 209.079 183.598 209.143 183.041 209.143C182.542 209.143 182.049 209.076 181.564 208.943C181.083 208.81 180.646 208.608 180.251 208.336C179.856 208.061 179.542 207.718 179.309 207.309C179.076 206.895 178.959 206.412 178.959 205.86H180.75C180.75 206.198 180.808 206.486 180.922 206.724C181.041 206.962 181.205 207.157 181.414 207.309C181.623 207.456 181.866 207.566 182.142 207.637C182.423 207.708 182.722 207.744 183.041 207.744C183.46 207.744 183.81 207.685 184.09 207.566C184.376 207.447 184.59 207.28 184.732 207.066C184.875 206.852 184.947 206.605 184.947 206.324ZM197.476 199.994L194.372 209H192.495L196.406 198.61H197.605L197.476 199.994ZM200.074 209L196.962 199.994L196.827 198.61H198.033L201.958 209H200.074ZM199.924 205.147V206.567H194.272V205.147H199.924ZM210.36 207.58V209H205.143V207.58H210.36ZM205.643 198.61V209H203.852V198.61H205.643ZM136.8 217.994L133.696 227H131.819L135.73 216.61H136.928L136.8 217.994ZM139.398 227L136.286 217.994L136.151 216.61H137.357L141.282 227H139.398ZM139.248 223.147V224.567H133.596V223.147H139.248ZM151.418 216.61V227H149.627L144.967 219.557V227H143.175V216.61H144.967L149.641 224.067V216.61H151.418ZM148.863 213.912L149.912 213.991C149.912 214.338 149.843 214.65 149.705 214.926C149.567 215.197 149.379 215.411 149.141 215.568C148.903 215.725 148.635 215.803 148.335 215.803C148.102 215.803 147.904 215.77 147.743 215.704C147.581 215.637 147.433 215.561 147.3 215.475C147.167 215.39 147.029 215.316 146.886 215.254C146.748 215.187 146.584 215.154 146.394 215.154C146.213 215.154 146.058 215.221 145.93 215.354C145.806 215.487 145.744 215.665 145.744 215.889L144.688 215.832C144.688 215.489 144.757 215.18 144.895 214.904C145.033 214.628 145.221 214.409 145.459 214.248C145.697 214.086 145.966 214.005 146.265 214.005C146.46 214.005 146.637 214.038 146.794 214.105C146.955 214.167 147.108 214.241 147.25 214.326C147.398 214.412 147.548 214.488 147.7 214.555C147.852 214.621 148.021 214.654 148.206 214.654C148.387 214.654 148.542 214.585 148.67 214.448C148.799 214.31 148.863 214.131 148.863 213.912ZM162.567 221.52V222.09C162.567 222.875 162.465 223.579 162.261 224.203C162.056 224.826 161.763 225.356 161.383 225.794C161.007 226.232 160.555 226.567 160.027 226.8C159.499 227.029 158.914 227.143 158.271 227.143C157.634 227.143 157.051 227.029 156.523 226.8C156 226.567 155.545 226.232 155.16 225.794C154.775 225.356 154.475 224.826 154.261 224.203C154.052 223.579 153.947 222.875 153.947 222.09V221.52C153.947 220.735 154.052 220.033 154.261 219.414C154.47 218.791 154.765 218.261 155.146 217.823C155.531 217.381 155.985 217.045 156.509 216.817C157.037 216.584 157.62 216.467 158.257 216.467C158.899 216.467 159.485 216.584 160.013 216.817C160.541 217.045 160.995 217.381 161.376 217.823C161.756 218.261 162.049 218.791 162.253 219.414C162.463 220.033 162.567 220.735 162.567 221.52ZM160.776 222.09V221.505C160.776 220.925 160.719 220.413 160.605 219.971C160.496 219.524 160.331 219.15 160.113 218.851C159.898 218.546 159.634 218.318 159.32 218.165C159.006 218.008 158.652 217.93 158.257 217.93C157.862 217.93 157.51 218.008 157.201 218.165C156.892 218.318 156.628 218.546 156.409 218.851C156.195 219.15 156.031 219.524 155.916 219.971C155.802 220.413 155.745 220.925 155.745 221.505V222.09C155.745 222.671 155.802 223.185 155.916 223.632C156.031 224.079 156.197 224.457 156.416 224.766C156.64 225.071 156.906 225.302 157.215 225.459C157.524 225.611 157.877 225.687 158.271 225.687C158.671 225.687 159.025 225.611 159.335 225.459C159.644 225.302 159.906 225.071 160.12 224.766C160.334 224.457 160.496 224.079 160.605 223.632C160.719 223.185 160.776 222.671 160.776 222.09Z" fill="white"/>
<ellipse cx="347.389" cy="208.02" rx="108.142" ry="141.187" transform="rotate(-37.2331 347.389 208.02)" fill="#C4C4C4"/>
<ellipse cx="347.389" cy="208.02" rx="108.142" ry="141.187" transform="rotate(-37.2331 347.389 208.02)" fill="#CB2283"/>
<path d="M296.704 160.77H298.585L302.121 170.203L305.649 160.77H307.531L302.861 173H301.366L296.704 160.77ZM295.847 160.77H297.636L297.947 168.935V173H295.847V160.77ZM306.598 160.77H308.396V173H306.288V168.935L306.598 160.77ZM316.673 162.4L313.019 173H310.81L315.413 160.77H316.824L316.673 162.4ZM319.73 173L316.068 162.4L315.908 160.77H317.328L321.948 173H319.73ZM319.554 168.464V170.136H312.901V168.464H319.554ZM315.379 160.014L317.017 157.486H319.302L317.017 160.014H315.379ZM330.611 169.85C330.611 169.598 330.572 169.374 330.493 169.178C330.421 168.982 330.289 168.803 330.099 168.641C329.908 168.478 329.639 168.321 329.292 168.17C328.951 168.013 328.514 167.854 327.982 167.692C327.399 167.512 326.862 167.314 326.369 167.095C325.882 166.871 325.456 166.614 325.092 166.322C324.728 166.026 324.446 165.687 324.244 165.306C324.042 164.92 323.942 164.475 323.942 163.971C323.942 163.472 324.045 163.019 324.252 162.61C324.465 162.201 324.765 161.848 325.151 161.551C325.543 161.249 326.005 161.017 326.537 160.854C327.069 160.686 327.657 160.602 328.301 160.602C329.208 160.602 329.989 160.77 330.644 161.106C331.305 161.442 331.812 161.893 332.165 162.459C332.523 163.024 332.702 163.649 332.702 164.332H330.611C330.611 163.929 330.524 163.573 330.351 163.265C330.183 162.951 329.925 162.705 329.578 162.526C329.236 162.347 328.802 162.257 328.276 162.257C327.777 162.257 327.363 162.333 327.033 162.484C326.702 162.635 326.456 162.839 326.294 163.097C326.131 163.355 326.05 163.646 326.05 163.971C326.05 164.2 326.103 164.41 326.21 164.601C326.316 164.785 326.478 164.959 326.697 165.121C326.915 165.278 327.189 165.426 327.52 165.566C327.85 165.706 328.239 165.841 328.687 165.97C329.365 166.171 329.956 166.395 330.46 166.642C330.964 166.882 331.384 167.157 331.72 167.465C332.056 167.773 332.308 168.123 332.476 168.515C332.644 168.901 332.728 169.341 332.728 169.833C332.728 170.349 332.624 170.813 332.417 171.228C332.21 171.636 331.913 171.986 331.526 172.278C331.146 172.563 330.686 172.784 330.149 172.941C329.617 173.092 329.023 173.168 328.368 173.168C327.78 173.168 327.201 173.09 326.63 172.933C326.064 172.776 325.549 172.538 325.084 172.219C324.619 171.894 324.25 171.491 323.975 171.009C323.701 170.522 323.564 169.954 323.564 169.304H325.672C325.672 169.702 325.739 170.041 325.874 170.321C326.014 170.601 326.207 170.83 326.453 171.009C326.7 171.183 326.985 171.312 327.31 171.396C327.64 171.48 327.993 171.522 328.368 171.522C328.861 171.522 329.273 171.452 329.603 171.312C329.939 171.172 330.191 170.976 330.359 170.724C330.527 170.472 330.611 170.181 330.611 169.85ZM344.149 173H341.537L341.554 171.328H344.149C344.905 171.328 345.538 171.163 346.047 170.833C346.563 170.503 346.949 170.029 347.207 169.413C347.47 168.797 347.601 168.064 347.601 167.213V166.549C347.601 165.888 347.526 165.303 347.375 164.794C347.229 164.284 347.011 163.856 346.719 163.509C346.434 163.161 346.081 162.898 345.661 162.719C345.247 162.54 344.768 162.45 344.225 162.45H341.487V160.77H344.225C345.037 160.77 345.779 160.908 346.451 161.182C347.123 161.451 347.702 161.84 348.189 162.349C348.682 162.859 349.06 163.469 349.323 164.181C349.586 164.892 349.718 165.687 349.718 166.566V167.213C349.718 168.092 349.586 168.887 349.323 169.598C349.06 170.309 348.682 170.92 348.189 171.429C347.697 171.933 347.109 172.322 346.425 172.597C345.748 172.866 344.989 173 344.149 173ZM342.704 160.77V173H340.596V160.77H342.704ZM360.7 171.328V173H354.207V171.328H360.7ZM354.803 160.77V173H352.695V160.77H354.803ZM359.851 165.877V167.524H354.207V165.877H359.851ZM360.658 160.77V162.45H354.207V160.77H360.658ZM376.59 168.431V170.329H367.779L367.661 168.859L372.76 160.77H374.683L372.6 164.256L370.063 168.431H376.59ZM375.204 160.77V173H372.785V160.77H375.204ZM386.992 165.81V167.927C386.992 168.845 386.894 169.637 386.698 170.304C386.502 170.965 386.219 171.508 385.849 171.933C385.485 172.353 385.051 172.664 384.547 172.866C384.043 173.067 383.484 173.168 382.868 173.168C382.375 173.168 381.916 173.106 381.49 172.983C381.064 172.854 380.681 172.656 380.339 172.387C380.003 172.118 379.712 171.779 379.466 171.37C379.225 170.956 379.04 170.463 378.911 169.892C378.783 169.321 378.718 168.666 378.718 167.927V165.81C378.718 164.892 378.816 164.105 379.012 163.45C379.214 162.789 379.497 162.249 379.861 161.829C380.23 161.409 380.667 161.101 381.171 160.905C381.675 160.703 382.235 160.602 382.851 160.602C383.344 160.602 383.8 160.667 384.22 160.796C384.645 160.919 385.029 161.112 385.371 161.375C385.712 161.638 386.003 161.977 386.244 162.391C386.485 162.8 386.67 163.29 386.799 163.861C386.927 164.427 386.992 165.076 386.992 165.81ZM384.564 168.246V165.482C384.564 165.04 384.539 164.654 384.489 164.323C384.444 163.993 384.374 163.713 384.279 163.483C384.183 163.248 384.066 163.058 383.926 162.912C383.786 162.767 383.626 162.66 383.447 162.593C383.268 162.526 383.069 162.492 382.851 162.492C382.576 162.492 382.333 162.545 382.12 162.652C381.913 162.758 381.736 162.929 381.591 163.164C381.445 163.394 381.333 163.702 381.255 164.088C381.182 164.469 381.146 164.934 381.146 165.482V168.246C381.146 168.688 381.168 169.077 381.213 169.413C381.263 169.749 381.336 170.038 381.431 170.279C381.532 170.514 381.65 170.707 381.784 170.858C381.924 171.004 382.084 171.11 382.263 171.177C382.448 171.245 382.649 171.278 382.868 171.278C383.136 171.278 383.374 171.225 383.581 171.119C383.794 171.007 383.973 170.833 384.119 170.598C384.27 170.357 384.382 170.043 384.455 169.657C384.528 169.271 384.564 168.8 384.564 168.246ZM397.73 165.81V167.927C397.73 168.845 397.632 169.637 397.436 170.304C397.24 170.965 396.957 171.508 396.587 171.933C396.223 172.353 395.789 172.664 395.285 172.866C394.781 173.067 394.221 173.168 393.605 173.168C393.113 173.168 392.654 173.106 392.228 172.983C391.802 172.854 391.419 172.656 391.077 172.387C390.741 172.118 390.45 171.779 390.204 171.37C389.963 170.956 389.778 170.463 389.649 169.892C389.521 169.321 389.456 168.666 389.456 167.927V165.81C389.456 164.892 389.554 164.105 389.75 163.45C389.952 162.789 390.234 162.249 390.598 161.829C390.968 161.409 391.405 161.101 391.909 160.905C392.413 160.703 392.973 160.602 393.589 160.602C394.081 160.602 394.538 160.667 394.958 160.796C395.383 160.919 395.767 161.112 396.109 161.375C396.45 161.638 396.741 161.977 396.982 162.391C397.223 162.8 397.408 163.29 397.536 163.861C397.665 164.427 397.73 165.076 397.73 165.81ZM395.302 168.246V165.482C395.302 165.04 395.277 164.654 395.227 164.323C395.182 163.993 395.112 163.713 395.017 163.483C394.921 163.248 394.804 163.058 394.664 162.912C394.524 162.767 394.364 162.66 394.185 162.593C394.006 162.526 393.807 162.492 393.589 162.492C393.314 162.492 393.071 162.545 392.858 162.652C392.651 162.758 392.474 162.929 392.329 163.164C392.183 163.394 392.071 163.702 391.993 164.088C391.92 164.469 391.884 164.934 391.884 165.482V168.246C391.884 168.688 391.906 169.077 391.951 169.413C392.001 169.749 392.074 170.038 392.169 170.279C392.27 170.514 392.388 170.707 392.522 170.858C392.662 171.004 392.822 171.11 393.001 171.177C393.185 171.245 393.387 171.278 393.605 171.278C393.874 171.278 394.112 171.225 394.319 171.119C394.532 171.007 394.711 170.833 394.857 170.598C395.008 170.357 395.12 170.043 395.193 169.657C395.266 169.271 395.302 168.8 395.302 168.246ZM283.858 189.439H280.674V187.768H283.858C284.412 187.768 284.86 187.678 285.202 187.499C285.543 187.32 285.792 187.073 285.949 186.76C286.111 186.44 286.193 186.076 286.193 185.668C286.193 185.281 286.111 184.92 285.949 184.584C285.792 184.243 285.543 183.968 285.202 183.761C284.86 183.554 284.412 183.45 283.858 183.45H281.321V194H279.213V181.77H283.858C284.804 181.77 285.608 181.938 286.268 182.274C286.935 182.605 287.441 183.064 287.789 183.652C288.136 184.234 288.309 184.901 288.309 185.651C288.309 186.44 288.136 187.118 287.789 187.684C287.441 188.249 286.935 188.683 286.268 188.985C285.608 189.288 284.804 189.439 283.858 189.439ZM291.059 181.77H295.385C296.315 181.77 297.107 181.91 297.762 182.19C298.417 182.47 298.918 182.885 299.266 183.433C299.618 183.977 299.795 184.649 299.795 185.449C299.795 186.06 299.683 186.597 299.459 187.062C299.235 187.527 298.918 187.919 298.51 188.238C298.101 188.552 297.614 188.795 297.048 188.969L296.41 189.279H292.521L292.504 187.608H295.419C295.923 187.608 296.343 187.518 296.679 187.339C297.015 187.16 297.267 186.916 297.435 186.608C297.608 186.295 297.695 185.942 297.695 185.55C297.695 185.125 297.611 184.755 297.443 184.441C297.281 184.122 297.029 183.879 296.687 183.711C296.345 183.537 295.911 183.45 295.385 183.45H293.168V194H291.059V181.77ZM298.039 194L295.167 188.507L297.376 188.498L300.29 193.891V194H298.039ZM312.507 187.549V188.221C312.507 189.145 312.386 189.974 312.145 190.707C311.905 191.441 311.56 192.065 311.112 192.58C310.67 193.096 310.138 193.49 309.516 193.765C308.895 194.034 308.206 194.168 307.45 194.168C306.7 194.168 306.014 194.034 305.392 193.765C304.776 193.49 304.242 193.096 303.788 192.58C303.334 192.065 302.982 191.441 302.73 190.707C302.483 189.974 302.36 189.145 302.36 188.221V187.549C302.36 186.625 302.483 185.799 302.73 185.071C302.976 184.338 303.323 183.713 303.771 183.198C304.225 182.677 304.759 182.283 305.375 182.014C305.997 181.74 306.683 181.602 307.433 181.602C308.189 181.602 308.878 181.74 309.5 182.014C310.121 182.283 310.656 182.677 311.104 183.198C311.552 183.713 311.896 184.338 312.137 185.071C312.383 185.799 312.507 186.625 312.507 187.549ZM310.398 188.221V187.532C310.398 186.849 310.331 186.247 310.197 185.726C310.068 185.2 309.875 184.761 309.617 184.408C309.365 184.049 309.054 183.781 308.685 183.601C308.315 183.417 307.898 183.324 307.433 183.324C306.969 183.324 306.554 183.417 306.19 183.601C305.826 183.781 305.515 184.049 305.258 184.408C305.006 184.761 304.813 185.2 304.678 185.726C304.544 186.247 304.477 186.849 304.477 187.532V188.221C304.477 188.904 304.544 189.509 304.678 190.035C304.813 190.562 305.009 191.007 305.266 191.371C305.529 191.729 305.843 192.001 306.207 192.186C306.571 192.365 306.985 192.454 307.45 192.454C307.92 192.454 308.338 192.365 308.702 192.186C309.066 192.001 309.374 191.729 309.626 191.371C309.878 191.007 310.068 190.562 310.197 190.035C310.331 189.509 310.398 188.904 310.398 188.221ZM319.028 194H316.416L316.433 192.328H319.028C319.784 192.328 320.417 192.163 320.926 191.833C321.441 191.503 321.828 191.029 322.085 190.413C322.349 189.797 322.48 189.064 322.48 188.213V187.549C322.48 186.888 322.405 186.303 322.253 185.794C322.108 185.284 321.889 184.856 321.598 184.509C321.313 184.161 320.96 183.898 320.54 183.719C320.126 183.54 319.647 183.45 319.104 183.45H316.365V181.77H319.104C319.916 181.77 320.657 181.908 321.329 182.182C322.001 182.451 322.581 182.84 323.068 183.349C323.561 183.859 323.939 184.469 324.202 185.181C324.465 185.892 324.597 186.687 324.597 187.566V188.213C324.597 189.092 324.465 189.887 324.202 190.598C323.939 191.309 323.561 191.92 323.068 192.429C322.575 192.933 321.987 193.322 321.304 193.597C320.627 193.866 319.868 194 319.028 194ZM317.583 181.77V194H315.475V181.77H317.583ZM334.436 181.77H336.536V189.943C336.536 190.873 336.334 191.651 335.931 192.278C335.528 192.905 334.979 193.378 334.285 193.698C333.596 194.011 332.826 194.168 331.975 194.168C331.096 194.168 330.312 194.011 329.623 193.698C328.934 193.378 328.391 192.905 327.994 192.278C327.602 191.651 327.406 190.873 327.406 189.943V181.77H329.506V189.943C329.506 190.531 329.606 191.015 329.808 191.396C330.009 191.771 330.295 192.049 330.665 192.228C331.034 192.407 331.471 192.496 331.975 192.496C332.479 192.496 332.913 192.407 333.277 192.228C333.646 192.049 333.932 191.771 334.134 191.396C334.335 191.015 334.436 190.531 334.436 189.943V181.77ZM346.913 190.019H349.013C348.945 190.819 348.721 191.533 348.341 192.161C347.96 192.782 347.425 193.272 346.736 193.63C346.047 193.989 345.21 194.168 344.225 194.168C343.469 194.168 342.788 194.034 342.184 193.765C341.579 193.49 341.061 193.104 340.63 192.606C340.199 192.102 339.868 191.494 339.639 190.783C339.415 190.072 339.303 189.277 339.303 188.398V187.381C339.303 186.502 339.417 185.707 339.647 184.996C339.882 184.285 340.218 183.677 340.655 183.173C341.092 182.663 341.615 182.274 342.226 182.006C342.842 181.737 343.533 181.602 344.3 181.602C345.275 181.602 346.098 181.782 346.77 182.14C347.442 182.498 347.963 182.994 348.332 183.627C348.707 184.259 348.937 184.985 349.021 185.802H346.921C346.865 185.276 346.742 184.825 346.551 184.45C346.367 184.075 346.092 183.789 345.728 183.593C345.364 183.391 344.888 183.291 344.3 183.291C343.819 183.291 343.399 183.38 343.04 183.559C342.682 183.739 342.383 184.002 342.142 184.349C341.901 184.696 341.719 185.125 341.596 185.634C341.478 186.138 341.419 186.715 341.419 187.364V188.398C341.419 189.013 341.473 189.573 341.579 190.077C341.691 190.576 341.859 191.004 342.083 191.363C342.313 191.721 342.604 191.998 342.956 192.194C343.309 192.39 343.732 192.488 344.225 192.488C344.824 192.488 345.308 192.393 345.678 192.203C346.053 192.012 346.336 191.735 346.526 191.371C346.722 191.001 346.851 190.551 346.913 190.019ZM359.011 190.019H361.111C361.044 190.819 360.82 191.533 360.439 192.161C360.058 192.782 359.524 193.272 358.835 193.63C358.146 193.989 357.309 194.168 356.323 194.168C355.567 194.168 354.887 194.034 354.282 193.765C353.678 193.49 353.16 193.104 352.728 192.606C352.297 192.102 351.967 191.494 351.737 190.783C351.513 190.072 351.401 189.277 351.401 188.398V187.381C351.401 186.502 351.516 185.707 351.746 184.996C351.981 184.285 352.317 183.677 352.754 183.173C353.19 182.663 353.714 182.274 354.324 182.006C354.94 181.737 355.632 181.602 356.399 181.602C357.373 181.602 358.197 181.782 358.868 182.14C359.54 182.498 360.061 182.994 360.431 183.627C360.806 184.259 361.036 184.985 361.12 185.802H359.02C358.964 185.276 358.84 184.825 358.65 184.45C358.465 184.075 358.191 183.789 357.827 183.593C357.463 183.391 356.987 183.291 356.399 183.291C355.917 183.291 355.497 183.38 355.139 183.559C354.781 183.739 354.481 184.002 354.24 184.349C354 184.696 353.818 185.125 353.694 185.634C353.577 186.138 353.518 186.715 353.518 187.364V188.398C353.518 189.013 353.571 189.573 353.678 190.077C353.79 190.576 353.958 191.004 354.182 191.363C354.411 191.721 354.702 191.998 355.055 192.194C355.408 192.39 355.831 192.488 356.323 192.488C356.923 192.488 357.407 192.393 357.777 192.203C358.152 192.012 358.435 191.735 358.625 191.371C358.821 191.001 358.95 190.551 359.011 190.019ZM366.137 181.77V194H364.029V181.77H366.137ZM379.37 187.549V188.221C379.37 189.145 379.25 189.974 379.009 190.707C378.768 191.441 378.424 192.065 377.976 192.58C377.533 193.096 377.001 193.49 376.38 193.765C375.758 194.034 375.069 194.168 374.313 194.168C373.563 194.168 372.877 194.034 372.256 193.765C371.64 193.49 371.105 193.096 370.651 192.58C370.198 192.065 369.845 191.441 369.593 190.707C369.347 189.974 369.223 189.145 369.223 188.221V187.549C369.223 186.625 369.347 185.799 369.593 185.071C369.839 184.338 370.187 183.713 370.635 183.198C371.088 182.677 371.623 182.283 372.239 182.014C372.86 181.74 373.546 181.602 374.297 181.602C375.053 181.602 375.741 181.74 376.363 182.014C376.985 182.283 377.519 182.677 377.967 183.198C378.415 183.713 378.76 184.338 379 185.071C379.247 185.799 379.37 186.625 379.37 187.549ZM377.262 188.221V187.532C377.262 186.849 377.195 186.247 377.06 185.726C376.931 185.2 376.738 184.761 376.481 184.408C376.229 184.049 375.918 183.781 375.548 183.601C375.179 183.417 374.761 183.324 374.297 183.324C373.832 183.324 373.418 183.417 373.054 183.601C372.69 183.781 372.379 184.049 372.121 184.408C371.869 184.761 371.676 185.2 371.542 185.726C371.407 186.247 371.34 186.849 371.34 187.532V188.221C371.34 188.904 371.407 189.509 371.542 190.035C371.676 190.562 371.872 191.007 372.13 191.371C372.393 191.729 372.706 192.001 373.07 192.186C373.434 192.365 373.849 192.454 374.313 192.454C374.784 192.454 375.201 192.365 375.565 192.186C375.929 192.001 376.237 191.729 376.489 191.371C376.741 191.007 376.931 190.562 377.06 190.035C377.195 189.509 377.262 188.904 377.262 188.221ZM392.04 181.77V194H389.932L384.447 185.239V194H382.338V181.77H384.447L389.948 190.548V181.77H392.04ZM403.416 192.328V194H396.923V192.328H403.416ZM397.52 181.77V194H395.411V181.77H397.52ZM402.568 186.877V188.524H396.923V186.877H402.568ZM403.374 181.77V183.45H396.923V181.77H403.374ZM412.432 190.85C412.432 190.598 412.393 190.374 412.314 190.178C412.242 189.982 412.11 189.803 411.92 189.641C411.729 189.478 411.461 189.321 411.113 189.17C410.772 189.013 410.335 188.854 409.803 188.692C409.221 188.512 408.683 188.314 408.19 188.095C407.703 187.871 407.278 187.614 406.914 187.322C406.55 187.026 406.267 186.687 406.065 186.306C405.864 185.92 405.763 185.475 405.763 184.971C405.763 184.472 405.866 184.019 406.074 183.61C406.286 183.201 406.586 182.848 406.972 182.551C407.364 182.249 407.826 182.017 408.358 181.854C408.89 181.686 409.478 181.602 410.122 181.602C411.029 181.602 411.811 181.77 412.466 182.106C413.126 182.442 413.633 182.893 413.986 183.459C414.344 184.024 414.524 184.649 414.524 185.332H412.432C412.432 184.929 412.345 184.573 412.172 184.265C412.004 183.951 411.746 183.705 411.399 183.526C411.057 183.347 410.623 183.257 410.097 183.257C409.599 183.257 409.184 183.333 408.854 183.484C408.524 183.635 408.277 183.839 408.115 184.097C407.952 184.355 407.871 184.646 407.871 184.971C407.871 185.2 407.924 185.41 408.031 185.601C408.137 185.785 408.3 185.959 408.518 186.121C408.736 186.278 409.011 186.426 409.341 186.566C409.671 186.706 410.061 186.841 410.509 186.97C411.186 187.171 411.777 187.395 412.281 187.642C412.785 187.882 413.205 188.157 413.541 188.465C413.877 188.773 414.129 189.123 414.297 189.515C414.465 189.901 414.549 190.341 414.549 190.833C414.549 191.349 414.445 191.813 414.238 192.228C414.031 192.636 413.734 192.986 413.348 193.278C412.967 193.563 412.508 193.784 411.97 193.941C411.438 194.092 410.845 194.168 410.189 194.168C409.601 194.168 409.022 194.09 408.451 193.933C407.885 193.776 407.37 193.538 406.905 193.219C406.44 192.894 406.071 192.491 405.796 192.009C405.522 191.522 405.385 190.954 405.385 190.304H407.493C407.493 190.702 407.56 191.041 407.695 191.321C407.835 191.601 408.028 191.83 408.274 192.009C408.521 192.183 408.806 192.312 409.131 192.396C409.461 192.48 409.814 192.522 410.189 192.522C410.682 192.522 411.094 192.452 411.424 192.312C411.76 192.172 412.012 191.976 412.18 191.724C412.348 191.472 412.432 191.181 412.432 190.85ZM273.798 215H271.186L271.203 213.328H273.798C274.554 213.328 275.187 213.163 275.697 212.833C276.212 212.503 276.598 212.029 276.856 211.413C277.119 210.797 277.251 210.064 277.251 209.213V208.549C277.251 207.888 277.175 207.303 277.024 206.794C276.878 206.284 276.66 205.856 276.369 205.509C276.083 205.161 275.73 204.898 275.31 204.719C274.896 204.54 274.417 204.45 273.874 204.45H271.136V202.77H273.874C274.686 202.77 275.428 202.908 276.1 203.182C276.772 203.451 277.351 203.84 277.839 204.349C278.331 204.859 278.709 205.469 278.972 206.181C279.236 206.892 279.367 207.687 279.367 208.566V209.213C279.367 210.092 279.236 210.887 278.972 211.598C278.709 212.309 278.331 212.92 277.839 213.429C277.346 213.933 276.758 214.322 276.075 214.597C275.397 214.866 274.638 215 273.798 215ZM272.354 202.77V215H270.245V202.77H272.354ZM284.595 202.77V215H282.487V202.77H284.595ZM294.51 211.85C294.51 211.598 294.471 211.374 294.392 211.178C294.319 210.982 294.188 210.803 293.997 210.641C293.807 210.478 293.538 210.321 293.191 210.17C292.85 210.013 292.413 209.854 291.881 209.692C291.298 209.512 290.761 209.314 290.268 209.095C289.781 208.871 289.355 208.614 288.991 208.322C288.627 208.026 288.345 207.687 288.143 207.306C287.941 206.92 287.841 206.475 287.841 205.971C287.841 205.472 287.944 205.019 288.151 204.61C288.364 204.201 288.664 203.848 289.05 203.551C289.442 203.249 289.904 203.017 290.436 202.854C290.968 202.686 291.556 202.602 292.2 202.602C293.107 202.602 293.888 202.77 294.543 203.106C295.204 203.442 295.711 203.893 296.064 204.459C296.422 205.024 296.601 205.649 296.601 206.332H294.51C294.51 205.929 294.423 205.573 294.249 205.265C294.081 204.951 293.824 204.705 293.477 204.526C293.135 204.347 292.701 204.257 292.175 204.257C291.676 204.257 291.262 204.333 290.932 204.484C290.601 204.635 290.355 204.839 290.193 205.097C290.03 205.355 289.949 205.646 289.949 205.971C289.949 206.2 290.002 206.41 290.109 206.601C290.215 206.785 290.377 206.959 290.596 207.121C290.814 207.278 291.088 207.426 291.419 207.566C291.749 207.706 292.138 207.841 292.586 207.97C293.264 208.171 293.855 208.395 294.359 208.642C294.863 208.882 295.283 209.157 295.619 209.465C295.955 209.773 296.207 210.123 296.375 210.515C296.543 210.901 296.627 211.341 296.627 211.833C296.627 212.349 296.523 212.813 296.316 213.228C296.109 213.636 295.812 213.986 295.425 214.278C295.045 214.563 294.585 214.784 294.048 214.941C293.516 215.092 292.922 215.168 292.267 215.168C291.679 215.168 291.1 215.09 290.528 214.933C289.963 214.776 289.448 214.538 288.983 214.219C288.518 213.894 288.149 213.491 287.874 213.009C287.6 212.522 287.463 211.954 287.463 211.304H289.571C289.571 211.702 289.638 212.041 289.773 212.321C289.913 212.601 290.106 212.83 290.352 213.009C290.598 213.183 290.884 213.312 291.209 213.396C291.539 213.48 291.892 213.522 292.267 213.522C292.76 213.522 293.172 213.452 293.502 213.312C293.838 213.172 294.09 212.976 294.258 212.724C294.426 212.472 294.51 212.181 294.51 211.85ZM304.383 202.77V215H302.291V202.77H304.383ZM308.221 202.77V204.45H298.486V202.77H308.221ZM310.694 202.77H315.02C315.949 202.77 316.742 202.91 317.397 203.19C318.052 203.47 318.553 203.885 318.9 204.433C319.253 204.977 319.429 205.649 319.429 206.449C319.429 207.06 319.317 207.597 319.094 208.062C318.87 208.527 318.553 208.919 318.144 209.238C317.736 209.552 317.248 209.795 316.683 209.969L316.044 210.279H312.156L312.139 208.608H315.053C315.557 208.608 315.977 208.518 316.313 208.339C316.649 208.16 316.901 207.916 317.069 207.608C317.243 207.295 317.33 206.942 317.33 206.55C317.33 206.125 317.246 205.755 317.078 205.441C316.915 205.122 316.663 204.879 316.322 204.711C315.98 204.537 315.546 204.45 315.02 204.45H312.802V215H310.694V202.77ZM317.674 215L314.801 209.507L317.01 209.498L319.925 214.891V215H317.674ZM324.641 202.77V215H322.532V202.77H324.641ZM332.707 209.473H329.591L329.574 207.936H332.296C332.755 207.936 333.144 207.869 333.463 207.734C333.788 207.594 334.035 207.396 334.203 207.138C334.371 206.875 334.455 206.559 334.455 206.189C334.455 205.78 334.376 205.447 334.219 205.189C334.063 204.932 333.822 204.744 333.497 204.627C333.178 204.509 332.769 204.45 332.271 204.45H330.23V215H328.121V202.77H332.271C332.943 202.77 333.542 202.835 334.068 202.964C334.6 203.092 335.051 203.294 335.42 203.568C335.796 203.837 336.078 204.179 336.269 204.593C336.465 205.007 336.563 205.5 336.563 206.071C336.563 206.575 336.442 207.037 336.202 207.457C335.961 207.872 335.605 208.21 335.135 208.474C334.664 208.737 334.079 208.894 333.379 208.944L332.707 209.473ZM332.615 215H328.928L329.877 213.328H332.615C333.091 213.328 333.489 213.25 333.808 213.093C334.127 212.931 334.365 212.71 334.522 212.43C334.684 212.144 334.765 211.811 334.765 211.43C334.765 211.033 334.695 210.688 334.555 210.397C334.415 210.1 334.194 209.874 333.892 209.717C333.589 209.554 333.195 209.473 332.707 209.473H330.339L330.356 207.936H333.438L333.917 208.516C334.589 208.538 335.14 208.686 335.572 208.961C336.008 209.235 336.333 209.591 336.546 210.027C336.759 210.464 336.865 210.935 336.865 211.439C336.865 212.217 336.694 212.869 336.353 213.396C336.017 213.922 335.532 214.322 334.9 214.597C334.267 214.866 333.505 215 332.615 215ZM346.713 202.77H348.813V210.943C348.813 211.873 348.611 212.651 348.208 213.278C347.805 213.905 347.256 214.378 346.562 214.698C345.873 215.011 345.103 215.168 344.252 215.168C343.373 215.168 342.589 215.011 341.9 214.698C341.211 214.378 340.668 213.905 340.27 213.278C339.878 212.651 339.682 211.873 339.682 210.943V202.77H341.782V210.943C341.782 211.531 341.883 212.015 342.085 212.396C342.286 212.771 342.572 213.049 342.941 213.228C343.311 213.407 343.748 213.496 344.252 213.496C344.756 213.496 345.19 213.407 345.554 213.228C345.923 213.049 346.209 212.771 346.41 212.396C346.612 212.015 346.713 211.531 346.713 210.943V202.77ZM354.217 202.77V215H352.109V202.77H354.217ZM361.251 215H358.638L358.655 213.328H361.251C362.007 213.328 362.639 213.163 363.149 212.833C363.664 212.503 364.05 212.029 364.308 211.413C364.571 210.797 364.703 210.064 364.703 209.213V208.549C364.703 207.888 364.627 207.303 364.476 206.794C364.33 206.284 364.112 205.856 363.821 205.509C363.535 205.161 363.182 204.898 362.762 204.719C362.348 204.54 361.869 204.45 361.326 204.45H358.588V202.77H361.326C362.138 202.77 362.88 202.908 363.552 203.182C364.224 203.451 364.804 203.84 365.291 204.349C365.784 204.859 366.161 205.469 366.425 206.181C366.688 206.892 366.819 207.687 366.819 208.566V209.213C366.819 210.092 366.688 210.887 366.425 211.598C366.161 212.309 365.784 212.92 365.291 213.429C364.798 213.933 364.21 214.322 363.527 214.597C362.849 214.866 362.091 215 361.251 215ZM359.806 202.77V215H357.698V202.77H359.806ZM374.374 204.4L370.72 215H368.511L373.114 202.77H374.525L374.374 204.4ZM377.431 215L373.769 204.4L373.61 202.77H375.029L379.649 215H377.431ZM377.255 210.464V212.136H370.603V210.464H377.255ZM388.312 211.85C388.312 211.598 388.273 211.374 388.195 211.178C388.122 210.982 387.99 210.803 387.8 210.641C387.609 210.478 387.341 210.321 386.993 210.17C386.652 210.013 386.215 209.854 385.683 209.692C385.101 209.512 384.563 209.314 384.07 209.095C383.583 208.871 383.158 208.614 382.794 208.322C382.43 208.026 382.147 207.687 381.945 207.306C381.744 206.92 381.643 206.475 381.643 205.971C381.643 205.472 381.746 205.019 381.954 204.61C382.166 204.201 382.466 203.848 382.852 203.551C383.244 203.249 383.706 203.017 384.238 202.854C384.77 202.686 385.358 202.602 386.002 202.602C386.909 202.602 387.691 202.77 388.346 203.106C389.006 203.442 389.513 203.893 389.866 204.459C390.224 205.024 390.404 205.649 390.404 206.332H388.312C388.312 205.929 388.225 205.573 388.052 205.265C387.884 204.951 387.626 204.705 387.279 204.526C386.937 204.347 386.503 204.257 385.977 204.257C385.479 204.257 385.064 204.333 384.734 204.484C384.404 204.635 384.157 204.839 383.995 205.097C383.832 205.355 383.751 205.646 383.751 205.971C383.751 206.2 383.804 206.41 383.911 206.601C384.017 206.785 384.18 206.959 384.398 207.121C384.616 207.278 384.891 207.426 385.221 207.566C385.551 207.706 385.941 207.841 386.389 207.97C387.066 208.171 387.657 208.395 388.161 208.642C388.665 208.882 389.085 209.157 389.421 209.465C389.757 209.773 390.009 210.123 390.177 210.515C390.345 210.901 390.429 211.341 390.429 211.833C390.429 212.349 390.325 212.813 390.118 213.228C389.911 213.636 389.614 213.986 389.228 214.278C388.847 214.563 388.388 214.784 387.85 214.941C387.318 215.092 386.725 215.168 386.069 215.168C385.481 215.168 384.902 215.09 384.331 214.933C383.765 214.776 383.25 214.538 382.785 214.219C382.32 213.894 381.951 213.491 381.676 213.009C381.402 212.522 381.265 211.954 381.265 211.304H383.373C383.373 211.702 383.44 212.041 383.575 212.321C383.715 212.601 383.908 212.83 384.154 213.009C384.401 213.183 384.686 213.312 385.011 213.396C385.341 213.48 385.694 213.522 386.069 213.522C386.562 213.522 386.974 213.452 387.304 213.312C387.64 213.172 387.892 212.976 388.06 212.724C388.228 212.472 388.312 212.181 388.312 211.85ZM406.302 213.328V215H399.809V213.328H406.302ZM400.406 202.77V215H398.297V202.77H400.406ZM405.454 207.877V209.524H399.809V207.877H405.454ZM406.26 202.77V204.45H399.809V202.77H406.26ZM418.586 202.77V215H416.477L410.992 206.239V215H408.884V202.77H410.992L416.494 211.548V202.77H418.586ZM266.63 223.745V236H264.211V226.534L261.305 227.458V225.551L266.37 223.745H266.63ZM277.713 223.644H278.065V225.576H277.923C277.284 225.576 276.716 225.671 276.217 225.862C275.719 226.052 275.296 226.324 274.949 226.677C274.608 227.024 274.344 227.444 274.16 227.936C273.98 228.429 273.891 228.981 273.891 229.591V231.624C273.891 232.061 273.933 232.447 274.017 232.783C274.106 233.113 274.232 233.391 274.395 233.615C274.563 233.833 274.759 233.998 274.983 234.11C275.207 234.217 275.459 234.27 275.739 234.27C276.002 234.27 276.24 234.214 276.453 234.102C276.671 233.99 276.856 233.833 277.007 233.631C277.164 233.424 277.281 233.183 277.36 232.909C277.444 232.629 277.486 232.324 277.486 231.993C277.486 231.663 277.444 231.358 277.36 231.078C277.281 230.798 277.164 230.557 277.007 230.356C276.85 230.148 276.66 229.989 276.436 229.877C276.212 229.765 275.96 229.709 275.68 229.709C275.299 229.709 274.963 229.798 274.672 229.978C274.386 230.151 274.162 230.375 274 230.65C273.838 230.924 273.751 231.212 273.74 231.515L273.009 231.044C273.026 230.613 273.115 230.204 273.278 229.818C273.446 229.432 273.675 229.09 273.966 228.793C274.263 228.491 274.619 228.256 275.033 228.088C275.447 227.914 275.915 227.827 276.436 227.827C277.007 227.827 277.508 227.936 277.939 228.155C278.376 228.373 278.74 228.673 279.031 229.054C279.322 229.434 279.541 229.874 279.686 230.372C279.832 230.871 279.905 231.403 279.905 231.968C279.905 232.562 279.807 233.113 279.611 233.623C279.42 234.133 279.143 234.578 278.779 234.958C278.421 235.339 277.99 235.636 277.486 235.849C276.982 236.062 276.416 236.168 275.789 236.168C275.139 236.168 274.549 236.05 274.017 235.815C273.49 235.574 273.037 235.238 272.656 234.807C272.275 234.376 271.981 233.864 271.774 233.27C271.572 232.677 271.472 232.027 271.472 231.321V230.381C271.472 229.395 271.614 228.494 271.9 227.676C272.191 226.853 272.608 226.142 273.152 225.543C273.695 224.938 274.35 224.47 275.117 224.14C275.884 223.81 276.749 223.644 277.713 223.644ZM290.441 228.81V230.927C290.441 231.845 290.343 232.637 290.147 233.304C289.951 233.965 289.668 234.508 289.299 234.933C288.935 235.353 288.501 235.664 287.997 235.866C287.493 236.067 286.933 236.168 286.317 236.168C285.824 236.168 285.365 236.106 284.939 235.983C284.514 235.854 284.13 235.656 283.789 235.387C283.453 235.118 283.162 234.779 282.915 234.37C282.674 233.956 282.49 233.463 282.361 232.892C282.232 232.321 282.168 231.666 282.168 230.927V228.81C282.168 227.892 282.266 227.105 282.462 226.45C282.663 225.789 282.946 225.249 283.31 224.829C283.68 224.409 284.116 224.101 284.62 223.905C285.124 223.703 285.684 223.602 286.3 223.602C286.793 223.602 287.249 223.667 287.669 223.796C288.095 223.919 288.478 224.112 288.82 224.375C289.162 224.638 289.453 224.977 289.694 225.391C289.934 225.8 290.119 226.29 290.248 226.861C290.377 227.427 290.441 228.076 290.441 228.81ZM288.014 231.246V228.482C288.014 228.04 287.988 227.654 287.938 227.323C287.893 226.993 287.823 226.713 287.728 226.483C287.633 226.248 287.515 226.058 287.375 225.912C287.235 225.767 287.076 225.66 286.897 225.593C286.717 225.526 286.519 225.492 286.3 225.492C286.026 225.492 285.782 225.545 285.569 225.652C285.362 225.758 285.186 225.929 285.04 226.164C284.895 226.394 284.783 226.702 284.704 227.088C284.631 227.469 284.595 227.934 284.595 228.482V231.246C284.595 231.688 284.617 232.077 284.662 232.413C284.713 232.749 284.785 233.038 284.881 233.279C284.981 233.514 285.099 233.707 285.233 233.858C285.373 234.004 285.533 234.11 285.712 234.177C285.897 234.245 286.099 234.278 286.317 234.278C286.586 234.278 286.824 234.225 287.031 234.119C287.244 234.007 287.423 233.833 287.569 233.598C287.72 233.357 287.832 233.043 287.904 232.657C287.977 232.271 288.014 231.8 288.014 231.246ZM303.526 223.77V236H301.434V223.77H303.526ZM307.364 223.77V225.45H297.629V223.77H307.364ZM317.842 234.328V236H311.349V234.328H317.842ZM311.946 223.77V236H309.837V223.77H311.946ZM316.994 228.877V230.524H311.349V228.877H316.994ZM317.8 223.77V225.45H311.349V223.77H317.8ZM320.424 223.77H324.75C325.679 223.77 326.472 223.91 327.127 224.19C327.782 224.47 328.283 224.885 328.63 225.433C328.983 225.977 329.159 226.649 329.159 227.449C329.159 228.06 329.047 228.597 328.823 229.062C328.599 229.527 328.283 229.919 327.874 230.238C327.466 230.552 326.978 230.795 326.413 230.969L325.774 231.279H321.885L321.869 229.608H324.783C325.287 229.608 325.707 229.518 326.043 229.339C326.379 229.16 326.631 228.916 326.799 228.608C326.973 228.295 327.06 227.942 327.06 227.55C327.06 227.125 326.976 226.755 326.808 226.441C326.645 226.122 326.393 225.879 326.052 225.711C325.71 225.537 325.276 225.45 324.75 225.45H322.532V236H320.424V223.77ZM327.404 236L324.531 230.507L326.74 230.498L329.655 235.891V236H327.404ZM332.119 223.77H336.445C337.375 223.77 338.167 223.91 338.822 224.19C339.477 224.47 339.979 224.885 340.326 225.433C340.679 225.977 340.855 226.649 340.855 227.449C340.855 228.06 340.743 228.597 340.519 229.062C340.295 229.527 339.979 229.919 339.57 230.238C339.161 230.552 338.674 230.795 338.108 230.969L337.47 231.279H333.581L333.564 229.608H336.479C336.983 229.608 337.403 229.518 337.739 229.339C338.075 229.16 338.327 228.916 338.495 228.608C338.668 228.295 338.755 227.942 338.755 227.55C338.755 227.125 338.671 226.755 338.503 226.441C338.341 226.122 338.089 225.879 337.747 225.711C337.406 225.537 336.972 225.45 336.445 225.45H334.228V236H332.119V223.77ZM339.099 236L336.227 230.507L338.436 230.498L341.35 235.891V236H339.099ZM346.066 223.77V236H343.958V223.77H346.066ZM354.326 223.77V236H352.235V223.77H354.326ZM358.165 223.77V225.45H348.43V223.77H358.165ZM370.154 229.549V230.221C370.154 231.145 370.034 231.974 369.793 232.707C369.552 233.441 369.208 234.065 368.76 234.58C368.317 235.096 367.785 235.49 367.164 235.765C366.542 236.034 365.854 236.168 365.098 236.168C364.347 236.168 363.661 236.034 363.04 235.765C362.424 235.49 361.889 235.096 361.435 234.58C360.982 234.065 360.629 233.441 360.377 232.707C360.131 231.974 360.007 231.145 360.007 230.221V229.549C360.007 228.625 360.131 227.799 360.377 227.071C360.623 226.338 360.971 225.713 361.419 225.198C361.872 224.677 362.407 224.283 363.023 224.014C363.644 223.74 364.33 223.602 365.081 223.602C365.837 223.602 366.525 223.74 367.147 224.014C367.769 224.283 368.303 224.677 368.751 225.198C369.199 225.713 369.544 226.338 369.784 227.071C370.031 227.799 370.154 228.625 370.154 229.549ZM368.046 230.221V229.532C368.046 228.849 367.979 228.247 367.844 227.726C367.715 227.2 367.522 226.761 367.265 226.408C367.013 226.049 366.702 225.781 366.332 225.601C365.963 225.417 365.546 225.324 365.081 225.324C364.616 225.324 364.202 225.417 363.838 225.601C363.474 225.781 363.163 226.049 362.905 226.408C362.653 226.761 362.46 227.2 362.326 227.726C362.191 228.247 362.124 228.849 362.124 229.532V230.221C362.124 230.904 362.191 231.509 362.326 232.035C362.46 232.562 362.656 233.007 362.914 233.371C363.177 233.729 363.49 234.001 363.854 234.186C364.218 234.365 364.633 234.454 365.098 234.454C365.568 234.454 365.985 234.365 366.349 234.186C366.713 234.001 367.021 233.729 367.273 233.371C367.525 233.007 367.715 232.562 367.844 232.035C367.979 231.509 368.046 230.904 368.046 230.221ZM373.122 223.77H377.448C378.378 223.77 379.17 223.91 379.825 224.19C380.48 224.47 380.982 224.885 381.329 225.433C381.682 225.977 381.858 226.649 381.858 227.449C381.858 228.06 381.746 228.597 381.522 229.062C381.298 229.527 380.982 229.919 380.573 230.238C380.164 230.552 379.677 230.795 379.111 230.969L378.473 231.279H374.584L374.567 229.608H377.482C377.986 229.608 378.406 229.518 378.742 229.339C379.078 229.16 379.33 228.916 379.498 228.608C379.671 228.295 379.758 227.942 379.758 227.55C379.758 227.125 379.674 226.755 379.506 226.441C379.344 226.122 379.092 225.879 378.75 225.711C378.409 225.537 377.975 225.45 377.448 225.45H375.231V236H373.122V223.77ZM380.102 236L377.23 230.507L379.439 230.498L382.353 235.891V236H380.102ZM387.069 223.77V236H384.961V223.77H387.069ZM400.302 229.549V230.221C400.302 231.145 400.181 231.974 399.94 232.707C399.7 233.441 399.355 234.065 398.907 234.58C398.465 235.096 397.933 235.49 397.311 235.765C396.69 236.034 396.001 236.168 395.245 236.168C394.495 236.168 393.809 236.034 393.187 235.765C392.571 235.49 392.036 235.096 391.583 234.58C391.129 234.065 390.776 233.441 390.525 232.707C390.278 231.974 390.155 231.145 390.155 230.221V229.549C390.155 228.625 390.278 227.799 390.525 227.071C390.771 226.338 391.118 225.713 391.566 225.198C392.02 224.677 392.554 224.283 393.17 224.014C393.792 223.74 394.478 223.602 395.228 223.602C395.984 223.602 396.673 223.74 397.295 224.014C397.916 224.283 398.451 224.677 398.899 225.198C399.347 225.713 399.691 226.338 399.932 227.071C400.178 227.799 400.302 228.625 400.302 229.549ZM398.193 230.221V229.532C398.193 228.849 398.126 228.247 397.992 227.726C397.863 227.2 397.67 226.761 397.412 226.408C397.16 226.049 396.849 225.781 396.48 225.601C396.11 225.417 395.693 225.324 395.228 225.324C394.763 225.324 394.349 225.417 393.985 225.601C393.621 225.781 393.31 226.049 393.053 226.408C392.801 226.761 392.608 227.2 392.473 227.726C392.339 228.247 392.272 228.849 392.272 229.532V230.221C392.272 230.904 392.339 231.509 392.473 232.035C392.608 232.562 392.804 233.007 393.061 233.371C393.324 233.729 393.638 234.001 394.002 234.186C394.366 234.365 394.78 234.454 395.245 234.454C395.715 234.454 396.133 234.365 396.497 234.186C396.861 234.001 397.169 233.729 397.42 233.371C397.672 233.007 397.863 232.562 397.992 232.035C398.126 231.509 398.193 230.904 398.193 230.221ZM409.704 232.85C409.704 232.598 409.665 232.374 409.586 232.178C409.514 231.982 409.382 231.803 409.192 231.641C409.001 231.478 408.732 231.321 408.385 231.17C408.044 231.013 407.607 230.854 407.075 230.692C406.493 230.512 405.955 230.314 405.462 230.095C404.975 229.871 404.549 229.614 404.185 229.322C403.821 229.026 403.539 228.687 403.337 228.306C403.136 227.92 403.035 227.475 403.035 226.971C403.035 226.472 403.138 226.019 403.346 225.61C403.558 225.201 403.858 224.848 404.244 224.551C404.636 224.249 405.098 224.017 405.63 223.854C406.162 223.686 406.75 223.602 407.394 223.602C408.301 223.602 409.082 223.77 409.738 224.106C410.398 224.442 410.905 224.893 411.258 225.459C411.616 226.024 411.795 226.649 411.795 227.332H409.704C409.704 226.929 409.617 226.573 409.444 226.265C409.276 225.951 409.018 225.705 408.671 225.526C408.329 225.347 407.895 225.257 407.369 225.257C406.871 225.257 406.456 225.333 406.126 225.484C405.795 225.635 405.549 225.839 405.387 226.097C405.224 226.355 405.143 226.646 405.143 226.971C405.143 227.2 405.196 227.41 405.303 227.601C405.409 227.785 405.571 227.959 405.79 228.121C406.008 228.278 406.283 228.426 406.613 228.566C406.943 228.706 407.332 228.841 407.78 228.97C408.458 229.171 409.049 229.395 409.553 229.642C410.057 229.882 410.477 230.157 410.813 230.465C411.149 230.773 411.401 231.123 411.569 231.515C411.737 231.901 411.821 232.341 411.821 232.833C411.821 233.349 411.717 233.813 411.51 234.228C411.303 234.636 411.006 234.986 410.619 235.278C410.239 235.563 409.78 235.784 409.242 235.941C408.71 236.092 408.116 236.168 407.461 236.168C406.873 236.168 406.294 236.09 405.723 235.933C405.157 235.776 404.642 235.538 404.177 235.219C403.712 234.894 403.343 234.491 403.068 234.009C402.794 233.522 402.657 232.954 402.657 232.304H404.765C404.765 232.702 404.832 233.041 404.967 233.321C405.107 233.601 405.3 233.83 405.546 234.009C405.793 234.183 406.078 234.312 406.403 234.396C406.733 234.48 407.086 234.522 407.461 234.522C407.954 234.522 408.366 234.452 408.696 234.312C409.032 234.172 409.284 233.976 409.452 233.724C409.62 233.472 409.704 233.181 409.704 232.85ZM420.857 223.77L423.696 229.608L426.535 223.77H428.87L424.754 231.498V236H422.629V231.498L418.513 223.77H420.857ZM305.323 244.77V246.072L300.594 257H298.041L302.77 246.66H296.68V244.77H305.323ZM315.986 249.81V251.927C315.986 252.845 315.888 253.637 315.692 254.304C315.496 254.965 315.213 255.508 314.843 255.933C314.479 256.353 314.045 256.664 313.541 256.866C313.037 257.067 312.477 257.168 311.862 257.168C311.369 257.168 310.91 257.106 310.484 256.983C310.058 256.854 309.675 256.656 309.333 256.387C308.997 256.118 308.706 255.779 308.46 255.37C308.219 254.956 308.034 254.463 307.905 253.892C307.777 253.321 307.712 252.666 307.712 251.927V249.81C307.712 248.892 307.81 248.105 308.006 247.45C308.208 246.789 308.491 246.249 308.855 245.829C309.224 245.409 309.661 245.101 310.165 244.905C310.669 244.703 311.229 244.602 311.845 244.602C312.338 244.602 312.794 244.667 313.214 244.796C313.639 244.919 314.023 245.112 314.365 245.375C314.706 245.638 314.997 245.977 315.238 246.391C315.479 246.8 315.664 247.29 315.793 247.861C315.921 248.427 315.986 249.076 315.986 249.81ZM313.558 252.246V249.482C313.558 249.04 313.533 248.654 313.483 248.323C313.438 247.993 313.368 247.713 313.273 247.483C313.177 247.248 313.06 247.058 312.92 246.912C312.78 246.767 312.62 246.66 312.441 246.593C312.262 246.526 312.063 246.492 311.845 246.492C311.57 246.492 311.327 246.545 311.114 246.652C310.907 246.758 310.73 246.929 310.585 247.164C310.439 247.394 310.327 247.702 310.249 248.088C310.176 248.469 310.14 248.934 310.14 249.482V252.246C310.14 252.688 310.162 253.077 310.207 253.413C310.257 253.749 310.33 254.038 310.425 254.279C310.526 254.514 310.644 254.707 310.778 254.858C310.918 255.004 311.078 255.11 311.257 255.177C311.442 255.245 311.643 255.278 311.862 255.278C312.13 255.278 312.368 255.225 312.575 255.119C312.788 255.007 312.967 254.833 313.113 254.598C313.264 254.357 313.376 254.043 313.449 253.657C313.522 253.271 313.558 252.8 313.558 252.246ZM326.29 244.77V257H324.182V244.77H326.29ZM333.324 257H330.712L330.728 255.328H333.324C334.08 255.328 334.713 255.163 335.222 254.833C335.737 254.503 336.124 254.029 336.381 253.413C336.645 252.797 336.776 252.064 336.776 251.213V250.549C336.776 249.888 336.701 249.303 336.549 248.794C336.404 248.284 336.185 247.856 335.894 247.509C335.609 247.161 335.256 246.898 334.836 246.719C334.421 246.54 333.943 246.45 333.4 246.45H330.661V244.77H333.4C334.211 244.77 334.953 244.908 335.625 245.182C336.297 245.451 336.877 245.84 337.364 246.349C337.857 246.859 338.235 247.469 338.498 248.181C338.761 248.892 338.893 249.687 338.893 250.566V251.213C338.893 252.092 338.761 252.887 338.498 253.598C338.235 254.309 337.857 254.92 337.364 255.429C336.871 255.933 336.283 256.322 335.6 256.597C334.923 256.866 334.164 257 333.324 257ZM331.879 244.77V257H329.771V244.77H331.879ZM344.121 244.77V257H342.012V244.77H344.121ZM357.353 250.549V251.221C357.353 252.145 357.233 252.974 356.992 253.707C356.751 254.441 356.407 255.065 355.959 255.58C355.517 256.096 354.985 256.49 354.363 256.765C353.741 257.034 353.053 257.168 352.297 257.168C351.546 257.168 350.86 257.034 350.239 256.765C349.623 256.49 349.088 256.096 348.635 255.58C348.181 255.065 347.828 254.441 347.576 253.707C347.33 252.974 347.207 252.145 347.207 251.221V250.549C347.207 249.625 347.33 248.799 347.576 248.071C347.823 247.338 348.17 246.713 348.618 246.198C349.071 245.677 349.606 245.283 350.222 245.014C350.844 244.74 351.53 244.602 352.28 244.602C353.036 244.602 353.725 244.74 354.346 245.014C354.968 245.283 355.503 245.677 355.951 246.198C356.398 246.713 356.743 247.338 356.984 248.071C357.23 248.799 357.353 249.625 357.353 250.549ZM355.245 251.221V250.532C355.245 249.849 355.178 249.247 355.043 248.726C354.915 248.2 354.721 247.761 354.464 247.408C354.212 247.049 353.901 246.781 353.531 246.601C353.162 246.417 352.745 246.324 352.28 246.324C351.815 246.324 351.401 246.417 351.037 246.601C350.673 246.781 350.362 247.049 350.104 247.408C349.852 247.761 349.659 248.2 349.525 248.726C349.39 249.247 349.323 249.849 349.323 250.532V251.221C349.323 251.904 349.39 252.509 349.525 253.035C349.659 253.562 349.855 254.007 350.113 254.371C350.376 254.729 350.69 255.001 351.054 255.186C351.418 255.365 351.832 255.454 352.297 255.454C352.767 255.454 353.184 255.365 353.548 255.186C353.912 255.001 354.22 254.729 354.472 254.371C354.724 254.007 354.915 253.562 355.043 253.035C355.178 252.509 355.245 251.904 355.245 251.221ZM361.178 244.77H363.06L366.596 254.203L370.124 244.77H372.005L367.335 257H365.84L361.178 244.77ZM360.322 244.77H362.111L362.421 252.935V257H360.322V244.77ZM371.073 244.77H372.87V257H370.762V252.935L371.073 244.77ZM381.147 246.4L377.494 257H375.284L379.887 244.77H381.299L381.147 246.4ZM384.205 257L380.543 246.4L380.383 244.77H381.802L386.422 257H384.205ZM384.028 252.464V254.136H377.376V252.464H384.028ZM395.085 253.85C395.085 253.598 395.046 253.374 394.968 253.178C394.895 252.982 394.763 252.803 394.573 252.641C394.383 252.478 394.114 252.321 393.767 252.17C393.425 252.013 392.988 251.854 392.456 251.692C391.874 251.512 391.336 251.314 390.844 251.095C390.357 250.871 389.931 250.614 389.567 250.322C389.203 250.026 388.92 249.687 388.719 249.306C388.517 248.92 388.416 248.475 388.416 247.971C388.416 247.472 388.52 247.019 388.727 246.61C388.94 246.201 389.239 245.848 389.626 245.551C390.018 245.249 390.48 245.017 391.012 244.854C391.544 244.686 392.132 244.602 392.776 244.602C393.683 244.602 394.464 244.77 395.119 245.106C395.78 245.442 396.287 245.893 396.639 246.459C396.998 247.024 397.177 247.649 397.177 248.332H395.085C395.085 247.929 394.999 247.573 394.825 247.265C394.657 246.951 394.399 246.705 394.052 246.526C393.711 246.347 393.277 246.257 392.75 246.257C392.252 246.257 391.838 246.333 391.507 246.484C391.177 246.635 390.93 246.839 390.768 247.097C390.606 247.355 390.525 247.646 390.525 247.971C390.525 248.2 390.578 248.41 390.684 248.601C390.791 248.785 390.953 248.959 391.171 249.121C391.39 249.278 391.664 249.426 391.994 249.566C392.325 249.706 392.714 249.841 393.162 249.97C393.84 250.171 394.43 250.395 394.934 250.642C395.438 250.882 395.858 251.157 396.194 251.465C396.53 251.773 396.782 252.123 396.95 252.515C397.118 252.901 397.202 253.341 397.202 253.833C397.202 254.349 397.099 254.813 396.891 255.228C396.684 255.636 396.387 255.986 396.001 256.278C395.62 256.563 395.161 256.784 394.623 256.941C394.092 257.092 393.498 257.168 392.843 257.168C392.255 257.168 391.675 257.09 391.104 256.933C390.539 256.776 390.023 256.538 389.559 256.219C389.094 255.894 388.724 255.491 388.45 255.009C388.175 254.522 388.038 253.954 388.038 253.304H390.147C390.147 253.702 390.214 254.041 390.348 254.321C390.488 254.601 390.681 254.83 390.928 255.009C391.174 255.183 391.46 255.312 391.784 255.396C392.115 255.48 392.468 255.522 392.843 255.522C393.336 255.522 393.747 255.452 394.078 255.312C394.413 255.172 394.665 254.976 394.833 254.724C395.001 254.472 395.085 254.181 395.085 253.85Z" fill="white"/>
</svg>
