<svg width="1071" height="256" viewBox="0 0 1071 256" fill="none" xmlns="http://www.w3.org/2000/svg">
<g filter="url(#filter0_d_48_10)">
<path d="M763.434 -739.56C452.247 -246.971 200.543 -74.1496 -377 61.9707L-56.0516 247.27C527.927 48.1098 796.786 -110.933 1065.65 -565.075L763.434 -739.56Z" fill="url(#paint0_linear_48_10)"/>
<path d="M763.434 -739.56C452.247 -246.971 200.543 -74.1496 -377 61.9707L-56.0516 247.27C527.927 48.1098 796.786 -110.933 1065.65 -565.075L763.434 -739.56Z" fill="url(#paint1_linear_48_10)"/>
<path d="M763.434 -739.56C452.247 -246.971 200.543 -74.1496 -377 61.9707L-56.0516 247.27C527.927 48.1098 796.786 -110.933 1065.65 -565.075L763.434 -739.56Z" stroke="black"/>
</g>
<defs>
<filter id="filter0_d_48_10" x="-382.342" y="-740.233" width="1452.68" height="996.05" filterUnits="userSpaceOnUse" color-interpolation-filters="sRGB">
<feFlood flood-opacity="0" result="BackgroundImageFix"/>
<feColorMatrix in="SourceAlpha" type="matrix" values="0 0 0 0 0 0 0 0 0 0 0 0 0 0 0 0 0 0 127 0" result="hardAlpha"/>
<feOffset dy="4"/>
<feGaussianBlur stdDeviation="2"/>
<feComposite in2="hardAlpha" operator="out"/>
<feColorMatrix type="matrix" values="0 0 0 0 0 0 0 0 0 0 0 0 0 0 0 0 0 0 0.25 0"/>
<feBlend mode="normal" in2="BackgroundImageFix" result="effect1_dropShadow_48_10"/>
<feBlend mode="normal" in="SourceGraphic" in2="effect1_dropShadow_48_10" result="shape"/>
</filter>
<linearGradient id="paint0_linear_48_10" x1="-251.298" y1="106.976" x2="790.867" y2="-97.3286" gradientUnits="userSpaceOnUse">
<stop stop-color="#CA2388"/>
<stop offset="0.651053" stop-color="#49228B"/>
</linearGradient>
<linearGradient id="paint1_linear_48_10" x1="-398.95" y1="366.846" x2="557.233" y2="3.94008" gradientUnits="userSpaceOnUse">
<stop offset="0.061169" stop-color="#72228A"/>
<stop offset="0.57978" stop-color="#4A228D"/>
<stop offset="0.973958" stop-color="#201437"/>
</linearGradient>
</defs>
</svg>
