<svg width="152" height="45" viewBox="0 0 152 45" fill="none" xmlns="http://www.w3.org/2000/svg">
<path d="M10.3806 22.2794C10.3806 18.1702 13.4606 14.7861 17.4531 14.7861C21.4457 14.7861 24.5257 18.1702 24.5257 22.2794C24.5257 26.3887 21.4457 29.7728 17.4531 29.7728C13.4606 29.7728 10.3806 26.3887 10.3806 22.2794Z" fill="white"/>
<path d="M10.3806 22.2794C10.3806 18.1702 13.4606 14.7861 17.4531 14.7861C21.4457 14.7861 24.5257 18.1702 24.5257 22.2794C24.5257 26.3887 21.4457 29.7728 17.4531 29.7728C13.4606 29.7728 10.3806 26.3887 10.3806 22.2794Z" fill="white"/>
<path d="M17.3392 3.90873C7.75701 3.90873 0 12.1273 0 22.2796C0 32.4319 7.75701 40.6505 17.3392 40.6505C26.9214 40.6505 34.6784 32.4319 34.6784 22.2796C34.7925 12.1273 26.9214 3.90873 17.3392 3.90873ZM29.2029 30.9816C25.4384 31.465 21.3318 31.5859 17.3392 31.5859C13.3466 31.5859 9.23997 31.465 5.47554 30.9816C4.44887 30.8607 3.8785 30.619 3.65036 29.4104C3.42221 27.114 3.42221 24.6968 3.42221 22.2796C3.42221 19.8624 3.42221 17.566 3.65036 15.2697C3.76443 14.0611 4.3348 13.8193 5.47554 13.6985C9.35404 13.215 13.4607 13.0942 17.3392 13.0942C21.3318 13.0942 25.4384 13.215 29.2029 13.6985C30.3436 13.8193 30.914 14.0611 31.028 15.2697C31.2562 17.566 31.2562 19.9832 31.2562 22.2796C31.2562 24.6968 31.2562 26.9932 31.028 29.4104C30.914 30.619 30.3436 30.8607 29.2029 30.9816Z" fill="white"/>
<path d="M17.3392 3.90873C7.75701 3.90873 0 12.1273 0 22.2796C0 32.4319 7.75701 40.6505 17.3392 40.6505C26.9214 40.6505 34.6784 32.4319 34.6784 22.2796C34.7925 12.1273 26.9214 3.90873 17.3392 3.90873ZM29.2029 30.9816C25.4384 31.465 21.3318 31.5859 17.3392 31.5859C13.3466 31.5859 9.23997 31.465 5.47554 30.9816C4.44887 30.8607 3.8785 30.619 3.65036 29.4104C3.42221 27.114 3.42221 24.6968 3.42221 22.2796C3.42221 19.8624 3.42221 17.566 3.65036 15.2697C3.76443 14.0611 4.3348 13.8193 5.47554 13.6985C9.35404 13.215 13.4607 13.0942 17.3392 13.0942C21.3318 13.0942 25.4384 13.215 29.2029 13.6985C30.3436 13.8193 30.914 14.0611 31.028 15.2697C31.2562 17.566 31.2562 19.9832 31.2562 22.2796C31.2562 24.6968 31.2562 26.9932 31.028 29.4104C30.914 30.619 30.3436 30.8607 29.2029 30.9816Z" fill="white"/>
<path d="M140.297 28.9023C137.227 28.9023 134.541 26.259 134.541 22.3956C134.541 18.7356 137.035 15.8889 140.297 15.8889C143.366 15.8889 146.052 18.5322 146.052 22.3956C146.052 26.0556 143.558 28.9023 140.297 28.9023ZM114.588 28.9023C111.518 28.9023 109.024 26.259 109.024 22.3956C109.024 18.5322 111.518 15.8889 114.588 15.8889C117.658 15.8889 120.152 18.5322 120.152 22.3956C120.152 26.259 117.658 28.9023 114.588 28.9023ZM88.6872 28.9023C85.6175 28.9023 82.9315 26.259 82.9315 22.3956C82.9315 18.7356 85.4257 15.8889 88.6872 15.8889C91.757 15.8889 94.4429 18.5322 94.4429 22.3956C94.4429 26.0556 91.757 28.9023 88.6872 28.9023ZM53.5774 28.9023C50.5077 28.9023 47.8217 26.259 47.8217 22.3956C47.8217 18.5322 50.5077 15.8889 53.5774 15.8889C56.6471 15.8889 59.1413 18.5322 59.1413 22.3956C59.3331 26.259 56.6471 28.9023 53.5774 28.9023ZM140.297 9.99214C133.965 9.99214 128.593 15.2788 128.593 22.5989C128.593 29.919 133.774 35.2057 140.297 35.2057C146.628 35.2057 152 29.919 152 22.5989C152 15.2788 146.82 9.99214 140.297 9.99214ZM88.6872 9.99214C82.356 9.99214 76.984 15.2788 76.984 22.5989C76.984 29.919 82.1641 35.2057 88.6872 35.2057C95.0185 35.2057 100.391 29.919 100.391 22.5989C100.391 15.2788 95.2104 9.99214 88.6872 9.99214ZM60.6761 10.3988C59.9087 10.3988 59.525 10.8055 59.525 11.6188V13.0422C58.182 11.4155 55.6879 9.99214 53.1937 9.99214C47.2462 9.99214 42.066 15.2788 42.066 22.3956C42.066 29.5123 46.8624 34.3924 53.0019 34.3924C55.6879 34.3924 57.7983 32.969 59.1413 31.5457C59.1413 36.4257 56.6471 38.6624 52.4263 38.6624C50.124 38.6624 48.0136 37.8491 45.5194 36.2224C44.9439 35.8157 44.1764 35.8157 43.7927 36.6291L42.2579 39.6791C41.8742 40.4924 42.066 41.1024 42.6416 41.5091C45.7113 43.5425 49.3566 44.5591 52.4263 44.5591C60.4843 44.5591 65.0888 39.8824 65.0888 29.309V11.2121C65.0888 10.3988 64.7051 9.99214 63.9377 9.99214H60.6761V10.3988ZM115.355 9.99214C113.053 9.99214 110.751 11.0088 109.216 12.8388V1.85872C109.216 1.04538 108.832 0.638704 108.065 0.638704H104.419C103.652 0.638704 103.268 1.04538 103.268 1.85872V33.579C103.268 34.3924 103.652 34.799 104.419 34.799H107.681C108.448 34.799 108.832 34.3924 108.832 33.579V32.1557C110.175 33.7824 112.861 35.2057 115.547 35.2057C121.303 35.2057 126.291 29.7157 126.291 22.5989C126.099 15.2788 121.111 9.99214 115.355 9.99214ZM70.6527 0.232032C69.3097 -0.377974 68.1586 0.232038 68.1586 1.85872V33.1724C68.1586 34.799 69.1178 35.6124 70.6527 34.799L72.5713 33.9857C73.7224 33.3757 74.298 32.5624 74.298 31.139V3.89207C74.298 2.46873 73.7224 1.65538 72.5713 1.04538L70.6527 0.232032Z" fill="white"/>
<path d="M140.297 28.9023C137.227 28.9023 134.541 26.259 134.541 22.3956C134.541 18.7356 137.035 15.8889 140.297 15.8889C143.366 15.8889 146.052 18.5322 146.052 22.3956C146.052 26.0556 143.558 28.9023 140.297 28.9023ZM114.588 28.9023C111.518 28.9023 109.024 26.259 109.024 22.3956C109.024 18.5322 111.518 15.8889 114.588 15.8889C117.658 15.8889 120.152 18.5322 120.152 22.3956C120.152 26.259 117.658 28.9023 114.588 28.9023ZM88.6872 28.9023C85.6175 28.9023 82.9315 26.259 82.9315 22.3956C82.9315 18.7356 85.4257 15.8889 88.6872 15.8889C91.757 15.8889 94.4429 18.5322 94.4429 22.3956C94.4429 26.0556 91.757 28.9023 88.6872 28.9023ZM53.5774 28.9023C50.5077 28.9023 47.8217 26.259 47.8217 22.3956C47.8217 18.5322 50.5077 15.8889 53.5774 15.8889C56.6471 15.8889 59.1413 18.5322 59.1413 22.3956C59.3331 26.259 56.6471 28.9023 53.5774 28.9023ZM140.297 9.99214C133.965 9.99214 128.593 15.2788 128.593 22.5989C128.593 29.919 133.774 35.2057 140.297 35.2057C146.628 35.2057 152 29.919 152 22.5989C152 15.2788 146.82 9.99214 140.297 9.99214ZM88.6872 9.99214C82.356 9.99214 76.984 15.2788 76.984 22.5989C76.984 29.919 82.1641 35.2057 88.6872 35.2057C95.0185 35.2057 100.391 29.919 100.391 22.5989C100.391 15.2788 95.2104 9.99214 88.6872 9.99214ZM60.6761 10.3988C59.9087 10.3988 59.525 10.8055 59.525 11.6188V13.0422C58.182 11.4155 55.6879 9.99214 53.1937 9.99214C47.2462 9.99214 42.066 15.2788 42.066 22.3956C42.066 29.5123 46.8624 34.3924 53.0019 34.3924C55.6879 34.3924 57.7983 32.969 59.1413 31.5457C59.1413 36.4257 56.6471 38.6624 52.4263 38.6624C50.124 38.6624 48.0136 37.8491 45.5194 36.2224C44.9439 35.8157 44.1764 35.8157 43.7927 36.6291L42.2579 39.6791C41.8742 40.4924 42.066 41.1024 42.6416 41.5091C45.7113 43.5425 49.3566 44.5591 52.4263 44.5591C60.4843 44.5591 65.0888 39.8824 65.0888 29.309V11.2121C65.0888 10.3988 64.7051 9.99214 63.9377 9.99214H60.6761V10.3988ZM115.355 9.99214C113.053 9.99214 110.751 11.0088 109.216 12.8388V1.85872C109.216 1.04538 108.832 0.638704 108.065 0.638704H104.419C103.652 0.638704 103.268 1.04538 103.268 1.85872V33.579C103.268 34.3924 103.652 34.799 104.419 34.799H107.681C108.448 34.799 108.832 34.3924 108.832 33.579V32.1557C110.175 33.7824 112.861 35.2057 115.547 35.2057C121.303 35.2057 126.291 29.7157 126.291 22.5989C126.099 15.2788 121.111 9.99214 115.355 9.99214ZM70.6527 0.232032C69.3097 -0.377974 68.1586 0.232038 68.1586 1.85872V33.1724C68.1586 34.799 69.1178 35.6124 70.6527 34.799L72.5713 33.9857C73.7224 33.3757 74.298 32.5624 74.298 31.139V3.89207C74.298 2.46873 73.7224 1.65538 72.5713 1.04538L70.6527 0.232032Z" fill="white"/>
</svg>
